  0
SECTION
  2
HEADER
  9
$ACADVER
  1
AC1015
  9
$ACADMAINTVER
 70
     6
  9
$DWGCODEPAGE
  3
ANSI_1252
  9
$INSBASE
 10
0.0
 20
0.0
 30
0.0
  9
$EXTMIN
 10
-137.5785394265
 20
-224.5020267685
 30
0.0
  9
$EXTMAX
 10
82.4214605735
 20
87.4979732315
 30
0.0
  9
$LIMMIN
 10
0.0
 20
0.0
  9
$LIMMAX
 10
420.0
 20
297.0
  9
$ORTHOMODE
 70
     0
  9
$REGENMODE
 70
     1
  9
$FILLMODE
 70
     1
  9
$QTEXTMODE
 70
     0
  9
$MIRRTEXT
 70
     1
  9
$LTSCALE
 40
1.0
  9
$ATTMODE
 70
     1
  9
$TEXTSIZE
 40
3.5
  9
$TRACEWID
 40
1.0
  9
$TEXTSTYLE
  7
Standard
  9
$CLAYER
  8
0
  9
$CELTYPE
  6
ByLayer
  9
$CECOLOR
 62
   256
  9
$CELTSCALE
 40
1.0
  9
$DISPSILH
 70
     0
  9
$DIMSCALE
 40
1.0
  9
$DIMASZ
 40
3.556
  9
$DIMEXO
 40
1.0
  9
$DIMDLI
 40
3.75
  9
$DIMRND
 40
0.0
  9
$DIMDLE
 40
0.0
  9
$DIMEXE
 40
1.0
  9
$DIMTP
 40
0.0
  9
$DIMTM
 40
0.0
  9
$DIMTXT
 40
3.5
  9
$DIMCEN
 40
2.5
  9
$DIMTSZ
 40
0.0
  9
$DIMTOL
 70
     0
  9
$DIMLIM
 70
     0
  9
$DIMTIH
 70
     1
  9
$DIMTOH
 70
     1
  9
$DIMSE1
 70
     0
  9
$DIMSE2
 70
     0
  9
$DIMTAD
 70
     1
  9
$DIMZIN
 70
     0
  9
$DIMBLK
  1

  9
$DIMASO
 70
     1
  9
$DIMSHO
 70
     1
  9
$DIMPOST
  1

  9
$DIMAPOST
  1

  9
$DIMALT
 70
     0
  9
$DIMALTD
 70
     3
  9
$DIMALTF
 40
0.0393700787
  9
$DIMLFAC
 40
1.0
  9
$DIMTOFL
 70
     1
  9
$DIMTVP
 40
0.0
  9
$DIMTIX
 70
     0
  9
$DIMSOXD
 70
     0
  9
$DIMSAH
 70
     0
  9
$DIMBLK1
  1

  9
$DIMBLK2
  1

  9
$DIMSTYLE
  2
ISO-25
  9
$DIMCLRD
 70
     0
  9
$DIMCLRE
 70
     0
  9
$DIMCLRT
 70
     0
  9
$DIMTFAC
 40
1.0
  9
$DIMGAP
 40
1.524
  9
$DIMJUST
 70
     0
  9
$DIMSD1
 70
     0
  9
$DIMSD2
 70
     0
  9
$DIMTOLJ
 70
     0
  9
$DIMTZIN
 70
     0
  9
$DIMALTZ
 70
     0
  9
$DIMALTTZ
 70
     0
  9
$DIMUPT
 70
     0
  9
$DIMDEC
 70
     2
  9
$DIMTDEC
 70
     2
  9
$DIMALTU
 70
     2
  9
$DIMALTTD
 70
     3
  9
$DIMTXSTY
  7
Standard
  9
$DIMAUNIT
 70
     0
  9
$DIMADEC
 70
     2
  9
$DIMALTRND
 40
0.0
  9
$DIMAZIN
 70
     0
  9
$DIMDSEP
 70
    44
  9
$DIMATFIT
 70
     3
  9
$DIMFRAC
 70
     0
  9
$DIMLDRBLK
  1

  9
$DIMLUNIT
 70
     2
  9
$DIMLWD
 70
    -2
  9
$DIMLWE
 70
    -2
  9
$DIMTMOVE
 70
     0
  9
$LUNITS
 70
     2
  9
$LUPREC
 70
     2
  9
$SKETCHINC
 40
1.0
  9
$FILLETRAD
 40
10.0
  9
$AUNITS
 70
     0
  9
$AUPREC
 70
     2
  9
$MENU
  1
.
  9
$ELEVATION
 40
0.0
  9
$PELEVATION
 40
0.0
  9
$THICKNESS
 40
0.0
  9
$LIMCHECK
 70
     0
  9
$CHAMFERA
 40
10.0
  9
$CHAMFERB
 40
10.0
  9
$CHAMFERC
 40
20.0
  9
$CHAMFERD
 40
0.0
  9
$SKPOLY
 70
     0
  9
$TDCREATE
 40
2457058.942073334
  9
$TDUCREATE
 40
2457058.900406667
  9
$TDUPDATE
 40
2457058.942284456
  9
$TDUUPDATE
 40
2457058.900617789
  9
$TDINDWG
 40
0.0000000116
  9
$TDUSRTIMER
 40
0.0000000116
  9
$USRTIMER
 70
     1
  9
$ANGBASE
 50
0.0
  9
$ANGDIR
 70
     0
  9
$PDMODE
 70
     0
  9
$PDSIZE
 40
-1.0
  9
$PLINEWID
 40
0.0
  9
$SPLFRAME
 70
     0
  9
$SPLINETYPE
 70
     6
  9
$SPLINESEGS
 70
     8
  9
$HANDSEED
  5
360
  9
$SURFTAB1
 70
     6
  9
$SURFTAB2
 70
     6
  9
$SURFTYPE
 70
     6
  9
$SURFU
 70
     6
  9
$SURFV
 70
     6
  9
$UCSBASE
  2

  9
$UCSNAME
  2

  9
$UCSORG
 10
0.0
 20
0.0
 30
0.0
  9
$UCSXDIR
 10
1.0
 20
0.0
 30
0.0
  9
$UCSYDIR
 10
0.0
 20
1.0
 30
0.0
  9
$UCSORTHOREF
  2

  9
$UCSORTHOVIEW
 70
     0
  9
$UCSORGTOP
 10
0.0
 20
0.0
 30
0.0
  9
$UCSORGBOTTOM
 10
0.0
 20
0.0
 30
0.0
  9
$UCSORGLEFT
 10
0.0
 20
0.0
 30
0.0
  9
$UCSORGRIGHT
 10
0.0
 20
0.0
 30
0.0
  9
$UCSORGFRONT
 10
0.0
 20
0.0
 30
0.0
  9
$UCSORGBACK
 10
0.0
 20
0.0
 30
0.0
  9
$PUCSBASE
  2

  9
$PUCSNAME
  2

  9
$PUCSORG
 10
0.0
 20
0.0
 30
0.0
  9
$PUCSXDIR
 10
1.0
 20
0.0
 30
0.0
  9
$PUCSYDIR
 10
0.0
 20
1.0
 30
0.0
  9
$PUCSORTHOREF
  2

  9
$PUCSORTHOVIEW
 70
     0
  9
$PUCSORGTOP
 10
0.0
 20
0.0
 30
0.0
  9
$PUCSORGBOTTOM
 10
0.0
 20
0.0
 30
0.0
  9
$PUCSORGLEFT
 10
0.0
 20
0.0
 30
0.0
  9
$PUCSORGRIGHT
 10
0.0
 20
0.0
 30
0.0
  9
$PUCSORGFRONT
 10
0.0
 20
0.0
 30
0.0
  9
$PUCSORGBACK
 10
0.0
 20
0.0
 30
0.0
  9
$USERI1
 70
     0
  9
$USERI2
 70
     0
  9
$USERI3
 70
     0
  9
$USERI4
 70
     0
  9
$USERI5
 70
     0
  9
$USERR1
 40
0.0
  9
$USERR2
 40
0.0
  9
$USERR3
 40
0.0
  9
$USERR4
 40
0.0
  9
$USERR5
 40
0.0
  9
$WORLDVIEW
 70
     1
  9
$SHADEDGE
 70
     3
  9
$SHADEDIF
 70
    70
  9
$TILEMODE
 70
     1
  9
$MAXACTVP
 70
    64
  9
$PINSBASE
 10
0.0
 20
0.0
 30
0.0
  9
$PLIMCHECK
 70
     0
  9
$PEXTMIN
 10
1.0000000000E+20
 20
1.0000000000E+20
 30
1.0000000000E+20
  9
$PEXTMAX
 10
-1.0000000000E+20
 20
-1.0000000000E+20
 30
-1.0000000000E+20
  9
$PLIMMIN
 10
0.0
 20
0.0
  9
$PLIMMAX
 10
420.0
 20
297.0
  9
$UNITMODE
 70
     0
  9
$VISRETAIN
 70
     1
  9
$PLINEGEN
 70
     0
  9
$PSLTSCALE
 70
     1
  9
$TREEDEPTH
 70
  3020
  9
$CMLSTYLE
  2
Standard
  9
$CMLJUST
 70
     0
  9
$CMLSCALE
 40
20.0
  9
$PROXYGRAPHICS
 70
     1
  9
$MEASUREMENT
 70
     1
  9
$CELWEIGHT
370
    -1
  9
$ENDCAPS
280
     0
  9
$JOINSTYLE
280
     0
  9
$LWDISPLAY
290
     1
  9
$INSUNITS
 70
     4
  9
$HYPERLINKBASE
  1

  9
$STYLESHEET
  1

  9
$XEDIT
290
     1
  9
$CEPSNTYPE
380
     0
  9
$PSTYLEMODE
290
     1
  9
$FINGERPRINTGUID
  2
{7846811F-98C4-43F2-BE29-843771569E94}
  9
$VERSIONGUID
  2
{FAEB1C32-E019-11D5-929B-00C0DF256EC4}
  9
$EXTNAMES
290
     1
  9
$PSVPSCALE
 40
0.0
  9
$OLESTARTUP
290
     0
  0
ENDSEC
  0
SECTION
  2
CLASSES
  0
CLASS
  1
ACDBDICTIONARYWDFLT
  2
AcDbDictionaryWithDefault
  3
ObjectDBX Classes
 90
        0
280
     0
281
     0
  0
CLASS
  1
VISUALSTYLE
  2
AcDbVisualStyle
  3
ObjectDBX Classes
 90
     4095
280
     0
281
     0
  0
CLASS
  1
MATERIAL
  2
AcDbMaterial
  3
ObjectDBX Classes
 90
     1153
280
     0
281
     0
  0
CLASS
  1
ACDBPLACEHOLDER
  2
AcDbPlaceHolder
  3
ObjectDBX Classes
 90
        0
280
     0
281
     0
  0
CLASS
  1
LAYOUT
  2
AcDbLayout
  3
ObjectDBX Classes
 90
        0
280
     0
281
     0
  0
ENDSEC
  0
SECTION
  2
TABLES
  0
TABLE
  2
VPORT
  5
8
330
0
100
AcDbSymbolTable
 70
     1
  0
VPORT
  5
29
330
8
100
AcDbSymbolTableRecord
100
AcDbViewportTableRecord
  2
*Active
 70
     0
 10
0.0
 20
0.0
 11
1.0
 21
1.0
 12
-27.5785394265
 22
-68.5020267685
 13
0.0
 23
0.0
 14
10.0
 24
10.0
 15
10.0
 25
10.0
 16
0.0
 26
0.0
 36
1.0
 17
0.0
 27
0.0
 37
0.0
 40
318.24
 41
0.7051282051
 42
50.0
 43
0.0
 44
0.0
 50
0.0
 51
0.0
 71
     0
 72
   100
 73
     1
 74
     3
 75
     0
 76
     0
 77
     0
 78
     0
281
     0
 65
     1
110
0.0
120
0.0
130
0.0
111
1.0
121
0.0
131
0.0
112
0.0
122
1.0
132
0.0
 79
     0
146
0.0
  0
ENDTAB
  0
TABLE
  2
LTYPE
  5
5
330
0
100
AcDbSymbolTable
 70
     6
  0
LTYPE
  5
14
330
5
100
AcDbSymbolTableRecord
100
AcDbLinetypeTableRecord
  2
ByBlock
 70
     0
  3

 72
    65
 73
     0
 40
0.0
  0
LTYPE
  5
15
330
5
100
AcDbSymbolTableRecord
100
AcDbLinetypeTableRecord
  2
ByLayer
 70
     0
  3

 72
    65
 73
     0
 40
0.0
  0
LTYPE
  5
16
330
5
100
AcDbSymbolTableRecord
100
AcDbLinetypeTableRecord
  2
Continuous
 70
     0
  3
Solid line
 72
    65
 73
     0
 40
0.0
  0
LTYPE
  5
3F
330
5
100
AcDbSymbolTableRecord
100
AcDbLinetypeTableRecord
  2
HIDDEN
 70
     0
  3
Hidden __ __ __ __ __ __ __ __ __ __ __ __ __ __
 72
    65
 73
     2
 40
1.905
 49
1.27
 74
     0
 49
-0.635
 74
     0
  0
LTYPE
  5
40
330
5
100
AcDbSymbolTableRecord
100
AcDbLinetypeTableRecord
  2
PHANTOM
 70
     0
  3
Phantom ______  __  __  ______  __  __  ______
 72
    65
 73
     6
 40
12.7
 49
6.35
 74
     0
 49
-1.27
 74
     0
 49
1.27
 74
     0
 49
-1.27
 74
     0
 49
1.27
 74
     0
 49
-1.27
 74
     0
  0
LTYPE
  5
41
330
5
100
AcDbSymbolTableRecord
100
AcDbLinetypeTableRecord
  2
CENTER
 70
     0
  3
Center ____ _ ____ _ ____ _ ____ _ ____ _ ____
 72
    65
 73
     4
 40
10.16
 49
6.35
 74
     0
 49
-1.27
 74
     0
 49
1.27
 74
     0
 49
-1.27
 74
     0
  0
LTYPE
  5
42
330
5
100
AcDbSymbolTableRecord
100
AcDbLinetypeTableRecord
  2
CENTERX2
 70
     0
  3
Center (2x) ________  __  ________  __  _____
 72
    65
 73
     4
 40
20.32
 49
12.7
 74
     0
 49
-2.54
 74
     0
 49
2.54
 74
     0
 49
-2.54
 74
     0
  0
LTYPE
  5
43
330
5
100
AcDbSymbolTableRecord
100
AcDbLinetypeTableRecord
  2
DOT2
 70
     0
  3
Dot (.5x) ........................................
 72
    65
 73
     2
 40
0.635
 49
0.0
 74
     0
 49
-0.635
 74
     0
  0
ENDTAB
  0
TABLE
  2
LAYER
  5
2
330
0
100
AcDbSymbolTable
 70
     1
  0
LAYER
  5
10
330
2
100
AcDbSymbolTableRecord
100
AcDbLayerTableRecord
  2
0
 70
     0
 62
     7
  6
Continuous
370
    -3
390
F
  0
ENDTAB
  0
TABLE
  2
STYLE
  5
3
330
0
100
AcDbSymbolTable
 70
     1
  0
STYLE
  5
11
330
3
100
AcDbSymbolTableRecord
100
AcDbTextStyleTableRecord
  2
Standard
 70
     0
 40
0.0
 41
1.0
 50
0.0
 71
     0
 42
3.5
  3
txt
  4

  0
ENDTAB
  0
TABLE
  2
VIEW
  5
6
330
0
100
AcDbSymbolTable
 70
     0
  0
ENDTAB
  0
TABLE
  2
UCS
  5
7
330
0
100
AcDbSymbolTable
 70
     0
  0
ENDTAB
  0
TABLE
  2
APPID
  5
9
330
0
100
AcDbSymbolTable
 70
     1
  0
APPID
  5
12
330
9
100
AcDbSymbolTableRecord
100
AcDbRegAppTableRecord
  2
ACAD
 70
     0
  0
ENDTAB
  0
TABLE
  2
DIMSTYLE
  5
A
330
0
100
AcDbSymbolTable
 70
     1
100
AcDbDimStyleTable
  0
DIMSTYLE
105
27
330
A
100
AcDbSymbolTableRecord
100
AcDbDimStyleTableRecord
  2
ISO-25
 70
     0
 41
2.5
 42
0.625
 43
3.75
 44
1.25
 73
     0
 74
     0
 77
     1
 78
     8
140
2.5
141
2.5
143
0.0393700787
147
0.625
171
     3
172
     1
178
     0
271
     2
272
     2
274
     3
278
    44
283
     0
284
     8
340
11
  0
ENDTAB
  0
TABLE
  2
BLOCK_RECORD
  5
1
330
0
100
AcDbSymbolTable
 70
     1
  0
BLOCK_RECORD
  5
1F
330
1
100
AcDbSymbolTableRecord
100
AcDbBlockTableRecord
  2
*Model_Space
340
22
  0
BLOCK_RECORD
  5
1B
330
1
100
AcDbSymbolTableRecord
100
AcDbBlockTableRecord
  2
*Paper_Space
340
1E
  0
BLOCK_RECORD
  5
23
330
1
100
AcDbSymbolTableRecord
100
AcDbBlockTableRecord
  2
*Paper_Space0
340
26
  0
ENDTAB
  0
ENDSEC
  0
SECTION
  2
BLOCKS
  0
BLOCK
  5
20
330
1F
100
AcDbEntity
  8
0
100
AcDbBlockBegin
  2
*Model_Space
 70
     0
 10
0.0
 20
0.0
 30
0.0
  3
*Model_Space
  1

  0
ENDBLK
  5
21
330
1F
100
AcDbEntity
  8
0
100
AcDbBlockEnd
  0
BLOCK
  5
1C
330
1B
100
AcDbEntity
 67
     1
  8
0
100
AcDbBlockBegin
  2
*Paper_Space
 70
     0
 10
0.0
 20
0.0
 30
0.0
  3
*Paper_Space
  1

  0
ENDBLK
  5
1D
330
1B
100
AcDbEntity
 67
     1
  8
0
100
AcDbBlockEnd
  0
BLOCK
  5
24
330
23
100
AcDbEntity
  8
0
100
AcDbBlockBegin
  2
*Paper_Space0
 70
     0
 10
0.0
 20
0.0
 30
0.0
  3
*Paper_Space0
  1

  0
ENDBLK
  5
25
330
23
100
AcDbEntity
  8
0
100
AcDbBlockEnd
  0
ENDSEC
  0
SECTION
  2
ENTITIES
  0
CIRCLE
  5
48
330
1F
100
AcDbEntity
  8
0
  6
Continuous
 62
     7
370
    15
100
AcDbCircle
 10
-19.5785394265
 20
-138.5020267685
 30
0.0
 40
1.999999999999972
  0
CIRCLE
  5
51
330
1F
100
AcDbEntity
  8
0
  6
Continuous
 62
     7
370
    15
100
AcDbCircle
 10
-19.5785394265
 20
1.4979732315
 30
0.0
 40
1.999999999999999
  0
CIRCLE
  5
5A
330
1F
100
AcDbEntity
  8
0
  6
Continuous
 62
     7
370
    15
100
AcDbCircle
 10
-2.5785394265
 20
-116.5020267685
 30
0.0
 40
2.000000000000014
  0
CIRCLE
  5
63
330
1F
100
AcDbEntity
  8
0
  6
Continuous
 62
     7
370
    15
100
AcDbCircle
 10
-2.5785394265
 20
-160.5020267685
 30
0.0
 40
2.0
  0
CIRCLE
  5
64
330
1F
100
AcDbEntity
  8
0
  6
Continuous
 62
     7
370
    15
100
AcDbCircle
 10
-2.5785394265
 20
23.4979732315
 30
0.0
 40
2.000000000000004
  0
CIRCLE
  5
65
330
1F
100
AcDbEntity
  8
0
  6
Continuous
 62
     7
370
    15
100
AcDbCircle
 10
-2.5785394265
 20
-20.5020267685
 30
0.0
 40
2.000000000000007
  0
CIRCLE
  5
76
330
1F
100
AcDbEntity
  8
0
  6
Continuous
 62
     7
370
    15
100
AcDbCircle
 10
-14.5785394265
 20
-212.0020267685
 30
0.0
 40
1.5
  0
CIRCLE
  5
77
330
1F
100
AcDbEntity
  8
0
  6
Continuous
 62
     7
370
    15
100
AcDbCircle
 10
-2.5785394265
 20
-219.0020267685
 30
0.0
 40
1.5
  0
CIRCLE
  5
78
330
1F
100
AcDbEntity
  8
0
  6
Continuous
 62
     7
370
    15
100
AcDbCircle
 10
9.4214605735
 20
-212.0020267685
 30
0.0
 40
1.5
  0
CIRCLE
  5
79
330
1F
100
AcDbEntity
  8
0
  6
Continuous
 62
     7
370
    15
100
AcDbCircle
 10
9.4214605735
 20
74.9979732315
 30
0.0
 40
1.5
  0
CIRCLE
  5
7A
330
1F
100
AcDbEntity
  8
0
  6
Continuous
 62
     7
370
    15
100
AcDbCircle
 10
-2.5785394265
 20
81.9979732315
 30
0.0
 40
1.5
  0
CIRCLE
  5
7B
330
1F
100
AcDbEntity
  8
0
  6
Continuous
 62
     7
370
    15
100
AcDbCircle
 10
-14.5785394265
 20
74.9979732315
 30
0.0
 40
1.5
  0
LINE
  5
1D8
330
1F
100
AcDbEntity
  8
0
  6
Continuous
 62
     7
370
    15
100
AcDbLine
 10
-16.5785394265
 20
-143.0020267685
 30
0.0
 11
-16.5785394265
 21
-152.0020267685
 31
0.0
  0
LINE
  5
1D9
330
1F
100
AcDbEntity
  8
0
  6
Continuous
 62
     7
370
    15
100
AcDbLine
 10
-22.5785394265
 20
-143.0020267685
 30
0.0
 11
-16.5785394265
 21
-143.0020267685
 31
0.0
  0
LINE
  5
1DA
330
1F
100
AcDbEntity
  8
0
  6
Continuous
 62
     7
370
    15
100
AcDbLine
 10
-22.5785394265
 20
-152.0020267685
 30
0.0
 11
-22.5785394265
 21
-143.0020267685
 31
0.0
  0
LINE
  5
1DB
330
1F
100
AcDbEntity
  8
0
  6
Continuous
 62
     7
370
    15
100
AcDbLine
 10
-16.5785394265
 20
-152.0020267685
 30
0.0
 11
-22.5785394265
 21
-152.0020267685
 31
0.0
  0
LINE
  5
1DC
330
1F
100
AcDbEntity
  8
0
  6
Continuous
 62
     7
370
    15
100
AcDbLine
 10
-22.5785394265
 20
5.9979732315
 30
0.0
 11
-16.5785394265
 21
5.9979732315
 31
0.0
  0
LINE
  5
1DD
330
1F
100
AcDbEntity
  8
0
  6
Continuous
 62
     7
370
    15
100
AcDbLine
 10
-16.5785394265
 20
5.9979732315
 30
0.0
 11
-16.5785394265
 21
14.9979732315
 31
0.0
  0
LINE
  5
1DE
330
1F
100
AcDbEntity
  8
0
  6
Continuous
 62
     7
370
    15
100
AcDbLine
 10
-16.5785394265
 20
14.9979732315
 30
0.0
 11
-22.5785394265
 21
14.9979732315
 31
0.0
  0
LINE
  5
1DF
330
1F
100
AcDbEntity
  8
0
  6
Continuous
 62
     7
370
    15
100
AcDbLine
 10
-22.5785394265
 20
14.9979732315
 30
0.0
 11
-22.5785394265
 21
5.9979732315
 31
0.0
  0
LINE
  5
1E0
330
1F
100
AcDbEntity
  8
0
  6
Continuous
 62
     7
370
    15
100
AcDbLine
 10
-22.5785394265
 20
-12.0020267685
 30
0.0
 11
-16.5785394265
 21
-12.0020267685
 31
0.0
  0
LINE
  5
1E1
330
1F
100
AcDbEntity
  8
0
  6
Continuous
 62
     7
370
    15
100
AcDbLine
 10
-16.5785394265
 20
-12.0020267685
 30
0.0
 11
-16.5785394265
 21
-3.0020267685
 31
0.0
  0
LINE
  5
1E2
330
1F
100
AcDbEntity
  8
0
  6
Continuous
 62
     7
370
    15
100
AcDbLine
 10
-16.5785394265
 20
-3.0020267685
 30
0.0
 11
-22.5785394265
 21
-3.0020267685
 31
0.0
  0
LINE
  5
1E3
330
1F
100
AcDbEntity
  8
0
  6
Continuous
 62
     7
370
    15
100
AcDbLine
 10
-22.5785394265
 20
-3.0020267685
 30
0.0
 11
-22.5785394265
 21
-12.0020267685
 31
0.0
  0
LINE
  5
1E4
330
1F
100
AcDbEntity
  8
0
  6
Continuous
 62
     7
370
    15
100
AcDbLine
 10
-22.5785394265
 20
-119.5020267685
 30
0.0
 11
-10.5785394265
 21
-119.5020267685
 31
0.0
  0
LINE
  5
1E5
330
1F
100
AcDbEntity
  8
0
  6
Continuous
 62
     7
370
    15
100
AcDbLine
 10
-10.5785394265
 20
-119.5020267685
 30
0.0
 11
-10.5785394265
 21
-113.5020267685
 31
0.0
  0
LINE
  5
1E6
330
1F
100
AcDbEntity
  8
0
  6
Continuous
 62
     7
370
    15
100
AcDbLine
 10
-10.5785394265
 20
-113.5020267685
 30
0.0
 11
-22.5785394265
 21
-113.5020267685
 31
0.0
  0
LINE
  5
1E7
330
1F
100
AcDbEntity
  8
0
  6
Continuous
 62
     7
370
    15
100
AcDbLine
 10
-22.5785394265
 20
-113.5020267685
 30
0.0
 11
-22.5785394265
 21
-119.5020267685
 31
0.0
  0
LINE
  5
1E8
330
1F
100
AcDbEntity
  8
0
  6
Continuous
 62
     7
370
    15
100
AcDbLine
 10
5.4214605735
 20
-119.5020267685
 30
0.0
 11
17.4214605735
 21
-119.5020267685
 31
0.0
  0
LINE
  5
1E9
330
1F
100
AcDbEntity
  8
0
  6
Continuous
 62
     7
370
    15
100
AcDbLine
 10
17.4214605735
 20
-119.5020267685
 30
0.0
 11
17.4214605735
 21
-113.5020267685
 31
0.0
  0
LINE
  5
1EA
330
1F
100
AcDbEntity
  8
0
  6
Continuous
 62
     7
370
    15
100
AcDbLine
 10
17.4214605735
 20
-113.5020267685
 30
0.0
 11
5.4214605735
 21
-113.5020267685
 31
0.0
  0
LINE
  5
1EB
330
1F
100
AcDbEntity
  8
0
  6
Continuous
 62
     7
370
    15
100
AcDbLine
 10
5.4214605735
 20
-113.5020267685
 30
0.0
 11
5.4214605735
 21
-119.5020267685
 31
0.0
  0
LINE
  5
1EC
330
1F
100
AcDbEntity
  8
0
  6
Continuous
 62
     7
370
    15
100
AcDbLine
 10
17.4214605735
 20
-163.5020267685
 30
0.0
 11
17.4214605735
 21
-157.5020267685
 31
0.0
  0
LINE
  5
1ED
330
1F
100
AcDbEntity
  8
0
  6
Continuous
 62
     7
370
    15
100
AcDbLine
 10
17.4214605735
 20
-157.5020267685
 30
0.0
 11
5.4214605735
 21
-157.5020267685
 31
0.0
  0
LINE
  5
1EE
330
1F
100
AcDbEntity
  8
0
  6
Continuous
 62
     7
370
    15
100
AcDbLine
 10
5.4214605735
 20
-157.5020267685
 30
0.0
 11
5.4214605735
 21
-163.5020267685
 31
0.0
  0
LINE
  5
1EF
330
1F
100
AcDbEntity
  8
0
  6
Continuous
 62
     7
370
    15
100
AcDbLine
 10
5.4214605735
 20
-163.5020267685
 30
0.0
 11
17.4214605735
 21
-163.5020267685
 31
0.0
  0
LINE
  5
1F0
330
1F
100
AcDbEntity
  8
0
  6
Continuous
 62
     7
370
    15
100
AcDbLine
 10
-10.5785394265
 20
-163.5020267685
 30
0.0
 11
-10.5785394265
 21
-157.5020267685
 31
0.0
  0
LINE
  5
1F1
330
1F
100
AcDbEntity
  8
0
  6
Continuous
 62
     7
370
    15
100
AcDbLine
 10
-10.5785394265
 20
-157.5020267685
 30
0.0
 11
-22.5785394265
 21
-157.5020267685
 31
0.0
  0
LINE
  5
1F2
330
1F
100
AcDbEntity
  8
0
  6
Continuous
 62
     7
370
    15
100
AcDbLine
 10
-22.5785394265
 20
-157.5020267685
 30
0.0
 11
-22.5785394265
 21
-163.5020267685
 31
0.0
  0
LINE
  5
1F3
330
1F
100
AcDbEntity
  8
0
  6
Continuous
 62
     7
370
    15
100
AcDbLine
 10
-22.5785394265
 20
-163.5020267685
 30
0.0
 11
-10.5785394265
 21
-163.5020267685
 31
0.0
  0
LINE
  5
1F4
330
1F
100
AcDbEntity
  8
0
  6
Continuous
 62
     7
370
    15
100
AcDbLine
 10
-22.5785394265
 20
20.4979732315
 30
0.0
 11
-10.5785394265
 21
20.4979732315
 31
0.0
  0
LINE
  5
1F5
330
1F
100
AcDbEntity
  8
0
  6
Continuous
 62
     7
370
    15
100
AcDbLine
 10
-10.5785394265
 20
20.4979732315
 30
0.0
 11
-10.5785394265
 21
26.4979732315
 31
0.0
  0
LINE
  5
1F6
330
1F
100
AcDbEntity
  8
0
  6
Continuous
 62
     7
370
    15
100
AcDbLine
 10
-10.5785394265
 20
26.4979732315
 30
0.0
 11
-22.5785394265
 21
26.4979732315
 31
0.0
  0
LINE
  5
1F7
330
1F
100
AcDbEntity
  8
0
  6
Continuous
 62
     7
370
    15
100
AcDbLine
 10
-22.5785394265
 20
26.4979732315
 30
0.0
 11
-22.5785394265
 21
20.4979732315
 31
0.0
  0
LINE
  5
1F8
330
1F
100
AcDbEntity
  8
0
  6
Continuous
 62
     7
370
    15
100
AcDbLine
 10
5.4214605735
 20
20.4979732315
 30
0.0
 11
17.4214605735
 21
20.4979732315
 31
0.0
  0
LINE
  5
1F9
330
1F
100
AcDbEntity
  8
0
  6
Continuous
 62
     7
370
    15
100
AcDbLine
 10
17.4214605735
 20
20.4979732315
 30
0.0
 11
17.4214605735
 21
26.4979732315
 31
0.0
  0
LINE
  5
1FA
330
1F
100
AcDbEntity
  8
0
  6
Continuous
 62
     7
370
    15
100
AcDbLine
 10
17.4214605735
 20
26.4979732315
 30
0.0
 11
5.4214605735
 21
26.4979732315
 31
0.0
  0
LINE
  5
1FB
330
1F
100
AcDbEntity
  8
0
  6
Continuous
 62
     7
370
    15
100
AcDbLine
 10
5.4214605735
 20
26.4979732315
 30
0.0
 11
5.4214605735
 21
20.4979732315
 31
0.0
  0
LINE
  5
1FC
330
1F
100
AcDbEntity
  8
0
  6
Continuous
 62
     7
370
    15
100
AcDbLine
 10
17.4214605735
 20
-23.5020267685
 30
0.0
 11
17.4214605735
 21
-17.5020267685
 31
0.0
  0
LINE
  5
1FD
330
1F
100
AcDbEntity
  8
0
  6
Continuous
 62
     7
370
    15
100
AcDbLine
 10
17.4214605735
 20
-17.5020267685
 30
0.0
 11
5.4214605735
 21
-17.5020267685
 31
0.0
  0
LINE
  5
1FE
330
1F
100
AcDbEntity
  8
0
  6
Continuous
 62
     7
370
    15
100
AcDbLine
 10
5.4214605735
 20
-17.5020267685
 30
0.0
 11
5.4214605735
 21
-23.5020267685
 31
0.0
  0
LINE
  5
1FF
330
1F
100
AcDbEntity
  8
0
  6
Continuous
 62
     7
370
    15
100
AcDbLine
 10
5.4214605735
 20
-23.5020267685
 30
0.0
 11
17.4214605735
 21
-23.5020267685
 31
0.0
  0
LINE
  5
200
330
1F
100
AcDbEntity
  8
0
  6
Continuous
 62
     7
370
    15
100
AcDbLine
 10
-10.5785394265
 20
-23.5020267685
 30
0.0
 11
-10.5785394265
 21
-17.5020267685
 31
0.0
  0
LINE
  5
201
330
1F
100
AcDbEntity
  8
0
  6
Continuous
 62
     7
370
    15
100
AcDbLine
 10
-10.5785394265
 20
-17.5020267685
 30
0.0
 11
-22.5785394265
 21
-17.5020267685
 31
0.0
  0
LINE
  5
202
330
1F
100
AcDbEntity
  8
0
  6
Continuous
 62
     7
370
    15
100
AcDbLine
 10
-22.5785394265
 20
-17.5020267685
 30
0.0
 11
-22.5785394265
 21
-23.5020267685
 31
0.0
  0
LINE
  5
203
330
1F
100
AcDbEntity
  8
0
  6
Continuous
 62
     7
370
    15
100
AcDbLine
 10
-22.5785394265
 20
-23.5020267685
 30
0.0
 11
-10.5785394265
 21
-23.5020267685
 31
0.0
  0
LINE
  5
204
330
1F
100
AcDbEntity
  8
0
  6
Continuous
 62
     7
370
    15
100
AcDbLine
 10
-46.6872728834
 20
-159.427781197
 30
0.0
 11
-59.4151949448
 21
-146.6998591357
 31
0.0
  0
LINE
  5
205
330
1F
100
AcDbEntity
  8
0
  6
Continuous
 62
     7
370
    15
100
AcDbLine
 10
-80.6283983804
 20
-146.6998591357
 30
0.0
 11
-99.0131746912
 21
-165.0846354465
 31
0.0
  0
LINE
  5
206
330
1F
100
AcDbEntity
  8
0
  6
Continuous
 62
     7
370
    15
100
AcDbLine
 10
-99.0131746912
 20
-186.2978388821
 30
0.0
 11
-86.2852526299
 21
-199.0257609435
 31
0.0
  0
LINE
  5
207
330
1F
100
AcDbEntity
  8
0
  6
Continuous
 62
     7
370
    15
100
AcDbLine
 10
-65.0720491943
 20
-199.0257609435
 30
0.0
 11
-46.6872728834
 21
-180.6409846326
 31
0.0
  0
LINE
  5
208
330
1F
100
AcDbEntity
  8
0
  6
Continuous
 62
     7
370
    15
100
AcDbLine
 10
-46.6872728834
 20
22.42372766
 30
0.0
 11
-59.4151949448
 21
9.6958055986
 31
0.0
  0
LINE
  5
209
330
1F
100
AcDbEntity
  8
0
  6
Continuous
 62
     7
370
    15
100
AcDbLine
 10
-65.0720491943
 20
62.0217074064
 30
0.0
 11
-46.6872728834
 21
43.6369310956
 31
0.0
  0
LINE
  5
20A
330
1F
100
AcDbEntity
  8
0
  6
Continuous
 62
     7
370
    15
100
AcDbLine
 10
-99.0131746912
 20
49.2937853451
 30
0.0
 11
-86.2852526299
 21
62.0217074064
 31
0.0
  0
LINE
  5
20B
330
1F
100
AcDbEntity
  8
0
  6
Continuous
 62
     7
370
    15
100
AcDbLine
 10
-80.6283983804
 20
9.6958055986
 30
0.0
 11
-99.0131746912
 21
28.0805819095
 31
0.0
  0
LINE
  5
20C
330
1F
100
AcDbEntity
  8
0
  6
Continuous
 62
     7
370
    15
100
AcDbLine
 10
-16.5785394265
 20
-125.0020267685
 30
0.0
 11
-16.5785394265
 21
-134.0020267685
 31
0.0
  0
LINE
  5
20D
330
1F
100
AcDbEntity
  8
0
  6
Continuous
 62
     7
370
    15
100
AcDbLine
 10
-22.5785394265
 20
-125.0020267685
 30
0.0
 11
-16.5785394265
 21
-125.0020267685
 31
0.0
  0
LINE
  5
20E
330
1F
100
AcDbEntity
  8
0
  6
Continuous
 62
     7
370
    15
100
AcDbLine
 10
-22.5785394265
 20
-134.0020267685
 30
0.0
 11
-22.5785394265
 21
-125.0020267685
 31
0.0
  0
LINE
  5
20F
330
1F
100
AcDbEntity
  8
0
  6
Continuous
 62
     7
370
    15
100
AcDbLine
 10
-16.5785394265
 20
-134.0020267685
 30
0.0
 11
-22.5785394265
 21
-134.0020267685
 31
0.0
  0
LINE
  5
210
330
1F
100
AcDbEntity
  8
0
  6
Continuous
 62
     7
370
    15
100
AcDbLine
 10
20.4214605735
 20
-93.5020267685
 30
0.0
 11
20.4214605735
 21
-43.5020267685
 31
0.0
  0
LINE
  5
211
330
1F
100
AcDbEntity
  8
0
  6
Continuous
 62
     7
370
    15
100
AcDbLine
 10
-9.5785394265
 20
-43.5020267685
 30
0.0
 11
-9.5785394265
 21
-93.5020267685
 31
0.0
  0
LINE
  5
212
330
1F
100
AcDbEntity
  8
0
  6
Continuous
 62
     7
370
    15
100
AcDbLine
 10
28.9214605735
 20
-93.3125445317
 30
0.0
 11
28.9214605735
 21
-158.3125445317
 31
0.0
  0
LINE
  5
213
330
1F
100
AcDbEntity
  8
0
  6
Continuous
 62
     7
370
    15
100
AcDbLine
 10
58.9214605735
 20
-158.3125445317
 30
0.0
 11
58.9214605735
 21
-93.3125445317
 31
0.0
  0
LINE
  5
214
330
1F
100
AcDbEntity
  8
0
  6
Continuous
 62
     7
370
    15
100
AcDbLine
 10
58.9214605735
 20
-43.6915090053
 30
0.0
 11
58.9214605735
 21
21.3084909947
 31
0.0
  0
LINE
  5
215
330
1F
100
AcDbEntity
  8
0
  6
Continuous
 62
     7
370
    15
100
AcDbLine
 10
28.9214605735
 20
21.3084909947
 30
0.0
 11
28.9214605735
 21
-43.6915090053
 31
0.0
  0
LINE
  5
216
330
1F
100
AcDbEntity
  8
0
  6
Continuous
 62
     7
370
    15
100
AcDbLine
 10
79.4214605735
 20
-23.5020267685
 30
0.0
 11
82.4214605735
 21
-23.5020267685
 31
0.0
  0
LINE
  5
217
330
1F
100
AcDbEntity
  8
0
  6
Continuous
 62
     7
370
    15
100
AcDbLine
 10
82.4214605735
 20
-35.5020267685
 30
0.0
 11
79.4214605735
 21
-35.5020267685
 31
0.0
  0
LINE
  5
218
330
1F
100
AcDbEntity
  8
0
  6
Continuous
 62
     7
370
    15
100
AcDbLine
 10
79.4214605735
 20
-35.5020267685
 30
0.0
 11
79.4214605735
 21
-50.5020267685
 31
0.0
  0
LINE
  5
219
330
1F
100
AcDbEntity
  8
0
  6
Continuous
 62
     7
370
    15
100
AcDbLine
 10
79.4214605735
 20
-50.5020267685
 30
0.0
 11
82.4214605735
 21
-50.5020267685
 31
0.0
  0
LINE
  5
21A
330
1F
100
AcDbEntity
  8
0
  6
Continuous
 62
     7
370
    15
100
AcDbLine
 10
82.4214605735
 20
-62.5020267685
 30
0.0
 11
79.4214605735
 21
-62.5020267685
 31
0.0
  0
LINE
  5
21B
330
1F
100
AcDbEntity
  8
0
  6
Continuous
 62
     7
370
    15
100
AcDbLine
 10
79.4214605735
 20
-62.5020267685
 30
0.0
 11
79.4214605735
 21
-74.5020267685
 31
0.0
  0
LINE
  5
21C
330
1F
100
AcDbEntity
  8
0
  6
Continuous
 62
     7
370
    15
100
AcDbLine
 10
79.4214605735
 20
-74.5020267685
 30
0.0
 11
82.4214605735
 21
-74.5020267685
 31
0.0
  0
LINE
  5
21D
330
1F
100
AcDbEntity
  8
0
  6
Continuous
 62
     7
370
    15
100
AcDbLine
 10
82.4214605735
 20
-86.5020267685
 30
0.0
 11
82.4214605735
 21
-74.5020267685
 31
0.0
  0
LINE
  5
21E
330
1F
100
AcDbEntity
  8
0
  6
Continuous
 62
     7
370
    15
100
AcDbLine
 10
82.4214605735
 20
-86.5020267685
 30
0.0
 11
79.4214605735
 21
-86.5020267685
 31
0.0
  0
LINE
  5
21F
330
1F
100
AcDbEntity
  8
0
  6
Continuous
 62
     7
370
    15
100
AcDbLine
 10
79.4214605735
 20
-86.5020267685
 30
0.0
 11
79.4214605735
 21
-101.5020267685
 31
0.0
  0
LINE
  5
220
330
1F
100
AcDbEntity
  8
0
  6
Continuous
 62
     7
370
    15
100
AcDbLine
 10
79.4214605735
 20
-101.5020267685
 30
0.0
 11
82.4214605735
 21
-101.5020267685
 31
0.0
  0
LINE
  5
221
330
1F
100
AcDbEntity
  8
0
  6
Continuous
 62
     7
370
    15
100
AcDbLine
 10
82.4214605735
 20
-113.5020267685
 30
0.0
 11
79.4214605735
 21
-113.5020267685
 31
0.0
  0
LINE
  5
222
330
1F
100
AcDbEntity
  8
0
  6
Continuous
 62
     7
370
    15
100
AcDbLine
 10
79.4214605735
 20
-113.5020267685
 30
0.0
 11
79.4214605735
 21
-120.5020267685
 31
0.0
  0
LINE
  5
223
330
1F
100
AcDbEntity
  8
0
  6
Continuous
 62
     7
370
    15
100
AcDbLine
 10
79.4214605735
 20
-120.5020267685
 30
0.0
 11
73.4214605735
 21
-120.5020267685
 31
0.0
  0
LINE
  5
224
330
1F
100
AcDbEntity
  8
0
  6
Continuous
 62
     7
370
    15
100
AcDbLine
 10
73.4214605735
 20
-120.5020267685
 30
0.0
 11
73.4214605735
 21
-119.5020267685
 31
0.0
  0
LINE
  5
225
330
1F
100
AcDbEntity
  8
0
  6
Continuous
 62
     7
370
    15
100
AcDbLine
 10
73.4214605735
 20
-119.5020267685
 30
0.0
 11
70.4214605735
 21
-119.5020267685
 31
0.0
  0
LINE
  5
226
330
1F
100
AcDbEntity
  8
0
  6
Continuous
 62
     7
370
    15
100
AcDbLine
 10
70.4214605735
 20
-119.5020267685
 30
0.0
 11
70.4214605735
 21
-120.5020267685
 31
0.0
  0
LINE
  5
227
330
1F
100
AcDbEntity
  8
0
  6
Continuous
 62
     7
370
    15
100
AcDbLine
 10
70.4214605735
 20
-120.5020267685
 30
0.0
 11
65.4214605735
 21
-120.5020267685
 31
0.0
  0
LINE
  5
228
330
1F
100
AcDbEntity
  8
0
  6
Continuous
 62
     7
370
    15
100
AcDbLine
 10
65.4214605735
 20
-120.5020267685
 30
0.0
 11
65.4214605735
 21
-124.5020267685
 31
0.0
  0
LINE
  5
229
330
1F
100
AcDbEntity
  8
0
  6
Continuous
 62
     7
370
    15
100
AcDbLine
 10
65.4214605735
 20
-124.5020267685
 30
0.0
 11
70.4214605735
 21
-124.5020267685
 31
0.0
  0
LINE
  5
22A
330
1F
100
AcDbEntity
  8
0
  6
Continuous
 62
     7
370
    15
100
AcDbLine
 10
70.4214605735
 20
-124.5020267685
 30
0.0
 11
70.4214605735
 21
-125.5020267685
 31
0.0
  0
LINE
  5
22B
330
1F
100
AcDbEntity
  8
0
  6
Continuous
 62
     7
370
    15
100
AcDbLine
 10
70.4214605735
 20
-125.5020267685
 30
0.0
 11
73.4214605735
 21
-125.5020267685
 31
0.0
  0
LINE
  5
22C
330
1F
100
AcDbEntity
  8
0
  6
Continuous
 62
     7
370
    15
100
AcDbLine
 10
73.4214605735
 20
-125.5020267685
 30
0.0
 11
73.4214605735
 21
-124.5020267685
 31
0.0
  0
LINE
  5
22D
330
1F
100
AcDbEntity
  8
0
  6
Continuous
 62
     7
370
    15
100
AcDbLine
 10
73.4214605735
 20
-124.5020267685
 30
0.0
 11
79.4214605735
 21
-124.5020267685
 31
0.0
  0
LINE
  5
22E
330
1F
100
AcDbEntity
  8
0
  6
Continuous
 62
     7
370
    15
100
AcDbLine
 10
79.4214605735
 20
-131.5020267685
 30
0.0
 11
82.4214605735
 21
-131.5020267685
 31
0.0
  0
LINE
  5
22F
330
1F
100
AcDbEntity
  8
0
  6
Continuous
 62
     7
370
    15
100
AcDbLine
 10
82.4214605735
 20
-143.5020267685
 30
0.0
 11
79.4214605735
 21
-143.5020267685
 31
0.0
  0
LINE
  5
230
330
1F
100
AcDbEntity
  8
0
  6
Continuous
 62
     7
370
    15
100
AcDbLine
 10
79.4214605735
 20
-143.5020267685
 30
0.0
 11
79.4214605735
 21
-158.5020267685
 31
0.0
  0
LINE
  5
231
330
1F
100
AcDbEntity
  8
0
  6
Continuous
 62
     7
370
    15
100
AcDbLine
 10
79.4214605735
 20
-158.5020267685
 30
0.0
 11
82.4214605735
 21
-158.5020267685
 31
0.0
  0
LINE
  5
232
330
1F
100
AcDbEntity
  8
0
  6
Continuous
 62
     7
370
    15
100
AcDbLine
 10
82.4214605735
 20
-170.5020267685
 30
0.0
 11
79.4214605735
 21
-170.5020267685
 31
0.0
  0
LINE
  5
233
330
1F
100
AcDbEntity
  8
0
  6
Continuous
 62
     7
370
    15
100
AcDbLine
 10
79.4214605735
 20
-170.5020267685
 30
0.0
 11
79.4214605735
 21
-179.5020267685
 31
0.0
  0
LINE
  5
234
330
1F
100
AcDbEntity
  8
0
  6
Continuous
 62
     7
370
    15
100
AcDbLine
 10
79.4214605735
 20
-179.5020267685
 30
0.0
 11
82.4214605735
 21
-179.5020267685
 31
0.0
  0
LINE
  5
235
330
1F
100
AcDbEntity
  8
0
  6
Continuous
 62
     7
370
    15
100
AcDbLine
 10
78.3313631502
 20
-188.5921241918
 30
0.0
 11
82.4214605735
 21
-184.5020267685
 31
0.0
  0
LINE
  5
236
330
1F
100
AcDbEntity
  8
0
  6
Continuous
 62
     7
370
    15
100
AcDbLine
 10
74.088722463
 20
-184.3494835047
 30
0.0
 11
78.3313631502
 21
-188.5921241918
 31
0.0
  0
LINE
  5
237
330
1F
100
AcDbEntity
  8
0
  6
Continuous
 62
     7
370
    15
100
AcDbLine
 10
72.6745089007
 20
-185.7636970671
 30
0.0
 11
74.088722463
 21
-184.3494835047
 31
0.0
  0
LINE
  5
238
330
1F
100
AcDbEntity
  8
0
  6
Continuous
 62
     7
370
    15
100
AcDbLine
 10
76.9171495878
 20
-190.0063377542
 30
0.0
 11
72.6745089007
 21
-185.7636970671
 31
0.0
  0
LINE
  5
239
330
1F
100
AcDbEntity
  8
0
  6
Continuous
 62
     7
370
    15
100
AcDbLine
 10
73.3816156819
 20
-193.5418716601
 30
0.0
 11
76.9171495878
 21
-190.0063377542
 31
0.0
  0
LINE
  5
23A
330
1F
100
AcDbEntity
  8
0
  6
Continuous
 62
     7
370
    15
100
AcDbLine
 10
69.1389749947
 20
-189.299230973
 30
0.0
 11
73.3816156819
 21
-193.5418716601
 31
0.0
  0
LINE
  5
23B
330
1F
100
AcDbEntity
  8
0
  6
Continuous
 62
     7
370
    15
100
AcDbLine
 10
65.6034410888
 20
-192.8347648789
 30
0.0
 11
69.1389749947
 21
-189.299230973
 31
0.0
  0
LINE
  5
23C
330
1F
100
AcDbEntity
  8
0
  6
Continuous
 62
     7
370
    15
100
AcDbLine
 10
69.8460817759
 20
-197.0774055661
 30
0.0
 11
65.6034410888
 21
-192.8347648789
 31
0.0
  0
LINE
  5
23D
330
1F
100
AcDbEntity
  8
0
  6
Continuous
 62
     7
370
    15
100
AcDbLine
 10
66.31054787
 20
-200.612939472
 30
0.0
 11
69.8460817759
 21
-197.0774055661
 31
0.0
  0
LINE
  5
23E
330
1F
100
AcDbEntity
  8
0
  6
Continuous
 62
     7
370
    15
100
AcDbLine
 10
62.0679071829
 20
-196.3702987849
 30
0.0
 11
66.31054787
 21
-200.612939472
 31
0.0
  0
LINE
  5
23F
330
1F
100
AcDbEntity
  8
0
  6
Continuous
 62
     7
370
    15
100
AcDbLine
 10
59.5930334487
 20
-198.845172519
 30
0.0
 11
62.0679071829
 21
-196.3702987849
 31
0.0
  0
LINE
  5
240
330
1F
100
AcDbEntity
  8
0
  6
Continuous
 62
     7
370
    15
100
AcDbLine
 10
55.3503927616
 20
-194.6025318319
 30
0.0
 11
59.5930334487
 21
-198.845172519
 31
0.0
  0
LINE
  5
241
330
1F
100
AcDbEntity
  8
0
  6
Continuous
 62
     7
370
    15
100
AcDbLine
 10
56.0574995428
 20
-193.8954250507
 30
0.0
 11
55.3503927616
 21
-194.6025318319
 31
0.0
  0
LINE
  5
242
330
1F
100
AcDbEntity
  8
0
  6
Continuous
 62
     7
370
    15
100
AcDbLine
 10
53.9361791992
 20
-191.7741047072
 30
0.0
 11
56.0574995428
 21
-193.8954250507
 31
0.0
  0
LINE
  5
243
330
1F
100
AcDbEntity
  8
0
  6
Continuous
 62
     7
370
    15
100
AcDbLine
 10
53.229072418
 20
-192.4812114884
 30
0.0
 11
53.9361791992
 21
-191.7741047072
 31
0.0
  0
LINE
  5
244
330
1F
100
AcDbEntity
  8
0
  6
Continuous
 62
     7
370
    15
100
AcDbLine
 10
49.6935385121
 20
-188.9456775824
 30
0.0
 11
53.229072418
 21
-192.4812114884
 31
0.0
  0
LINE
  5
245
330
1F
100
AcDbEntity
  8
0
  6
Continuous
 62
     7
370
    15
100
AcDbLine
 10
46.8651113874
 20
-191.7741047072
 30
0.0
 11
49.6935385121
 21
-188.9456775824
 31
0.0
  0
LINE
  5
246
330
1F
100
AcDbEntity
  8
0
  6
Continuous
 62
     7
370
    15
100
AcDbLine
 10
50.4006452933
 20
-195.3096386131
 30
0.0
 11
46.8651113874
 21
-191.7741047072
 31
0.0
  0
LINE
  5
247
330
1F
100
AcDbEntity
  8
0
  6
Continuous
 62
     7
370
    15
100
AcDbLine
 10
49.6935385121
 20
-196.0167453943
 30
0.0
 11
50.4006452933
 21
-195.3096386131
 31
0.0
  0
LINE
  5
248
330
1F
100
AcDbEntity
  8
0
  6
Continuous
 62
     7
370
    15
100
AcDbLine
 10
51.8148588557
 20
-198.1380657378
 30
0.0
 11
49.6935385121
 21
-196.0167453943
 31
0.0
  0
LINE
  5
249
330
1F
100
AcDbEntity
  8
0
  6
Continuous
 62
     7
370
    15
100
AcDbLine
 10
52.5219656369
 20
-197.4309589567
 30
0.0
 11
51.8148588557
 21
-198.1380657378
 31
0.0
  0
LINE
  5
24A
330
1F
100
AcDbEntity
  8
0
  6
Continuous
 62
     7
370
    15
100
AcDbLine
 10
56.764606324
 20
-201.6735996438
 30
0.0
 11
52.5219656369
 21
-197.4309589567
 31
0.0
  0
LINE
  5
24B
330
1F
100
AcDbEntity
  8
0
  6
Continuous
 62
     7
370
    15
100
AcDbLine
 10
54.2897325898
 20
-204.1484733779
 30
0.0
 11
56.764606324
 21
-201.6735996438
 31
0.0
  0
LINE
  5
24C
330
1F
100
AcDbEntity
  8
0
  6
Continuous
 62
     7
370
    15
100
AcDbLine
 10
58.5323732769
 20
-208.391114065
 30
0.0
 11
54.2897325898
 21
-204.1484733779
 31
0.0
  0
LINE
  5
24D
330
1F
100
AcDbEntity
  8
0
  6
Continuous
 62
     7
370
    15
100
AcDbLine
 10
54.996839371
 20
-211.926647971
 30
0.0
 11
58.5323732769
 21
-208.391114065
 31
0.0
  0
LINE
  5
24E
330
1F
100
AcDbEntity
  8
0
  6
Continuous
 62
     7
370
    15
100
AcDbLine
 10
50.7541986839
 20
-207.6840072839
 30
0.0
 11
54.996839371
 21
-211.926647971
 31
0.0
  0
LINE
  5
24F
330
1F
100
AcDbEntity
  8
0
  6
Continuous
 62
     7
370
    15
100
AcDbLine
 10
47.218664778
 20
-211.2195411898
 30
0.0
 11
50.7541986839
 21
-207.6840072839
 31
0.0
  0
LINE
  5
250
330
1F
100
AcDbEntity
  8
0
  6
Continuous
 62
     7
370
    15
100
AcDbLine
 10
51.4613054651
 20
-215.4621818769
 30
0.0
 11
47.218664778
 21
-211.2195411898
 31
0.0
  0
LINE
  5
251
330
1F
100
AcDbEntity
  8
0
  6
Continuous
 62
     7
370
    15
100
AcDbLine
 10
47.9257715591
 20
-218.9977157828
 30
0.0
 11
51.4613054651
 21
-215.4621818769
 31
0.0
  0
LINE
  5
252
330
1F
100
AcDbEntity
  8
0
  6
Continuous
 62
     7
370
    15
100
AcDbLine
 10
43.683130872
 20
-214.7550750957
 30
0.0
 11
47.9257715591
 21
-218.9977157828
 31
0.0
  0
LINE
  5
253
330
1F
100
AcDbEntity
  8
0
  6
Continuous
 62
     7
370
    15
100
AcDbLine
 10
42.2689173096
 20
-216.1692886581
 30
0.0
 11
43.683130872
 21
-214.7550750957
 31
0.0
  0
LINE
  5
254
330
1F
100
AcDbEntity
  8
0
  6
Continuous
 62
     7
370
    15
100
AcDbLine
 10
46.5115579968
 20
-220.4119293452
 30
0.0
 11
42.2689173096
 21
-216.1692886581
 31
0.0
  0
LINE
  5
255
330
1F
100
AcDbEntity
  8
0
  6
Continuous
 62
     7
370
    15
100
AcDbLine
 10
42.4214605735
 20
-224.5020267685
 30
0.0
 11
46.5115579968
 21
-220.4119293452
 31
0.0
  0
LINE
  5
256
330
1F
100
AcDbEntity
  8
0
  6
Continuous
 62
     7
370
    15
100
AcDbLine
 10
37.4214605735
 20
-224.5020267685
 30
0.0
 11
42.4214605735
 21
-224.5020267685
 31
0.0
  0
LINE
  5
257
330
1F
100
AcDbEntity
  8
0
  6
Continuous
 62
     7
370
    15
100
AcDbLine
 10
37.4214605735
 20
-224.5020267685
 30
0.0
 11
37.4214605735
 21
-221.5020267685
 31
0.0
  0
LINE
  5
258
330
1F
100
AcDbEntity
  8
0
  6
Continuous
 62
     7
370
    15
100
AcDbLine
 10
37.4214605735
 20
-221.5020267685
 30
0.0
 11
32.4214605735
 21
-221.5020267685
 31
0.0
  0
LINE
  5
259
330
1F
100
AcDbEntity
  8
0
  6
Continuous
 62
     7
370
    15
100
AcDbLine
 10
32.4214605735
 20
-221.5020267685
 30
0.0
 11
32.4214605735
 21
-224.5020267685
 31
0.0
  0
LINE
  5
25A
330
1F
100
AcDbEntity
  8
0
  6
Continuous
 62
     7
370
    15
100
AcDbLine
 10
26.4214605735
 20
-224.5020267685
 30
0.0
 11
32.4214605735
 21
-224.5020267685
 31
0.0
  0
LINE
  5
25B
330
1F
100
AcDbEntity
  8
0
  6
Continuous
 62
     7
370
    15
100
AcDbLine
 10
26.4214605735
 20
-224.5020267685
 30
0.0
 11
26.4214605735
 21
-221.5020267685
 31
0.0
  0
LINE
  5
25C
330
1F
100
AcDbEntity
  8
0
  6
Continuous
 62
     7
370
    15
100
AcDbLine
 10
26.4214605735
 20
-221.5020267685
 30
0.0
 11
16.4214605735
 21
-221.5020267685
 31
0.0
  0
LINE
  5
25D
330
1F
100
AcDbEntity
  8
0
  6
Continuous
 62
     7
370
    15
100
AcDbLine
 10
16.4214605735
 20
-221.5020267685
 30
0.0
 11
16.4214605735
 21
-224.5020267685
 31
0.0
  0
LINE
  5
25E
330
1F
100
AcDbEntity
  8
0
  6
Continuous
 62
     7
370
    15
100
AcDbLine
 10
10.4214605735
 20
-224.5020267685
 30
0.0
 11
16.4214605735
 21
-224.5020267685
 31
0.0
  0
LINE
  5
25F
330
1F
100
AcDbEntity
  8
0
  6
Continuous
 62
     7
370
    15
100
AcDbLine
 10
10.4214605735
 20
-224.5020267685
 30
0.0
 11
10.4214605735
 21
-221.5020267685
 31
0.0
  0
LINE
  5
260
330
1F
100
AcDbEntity
  8
0
  6
Continuous
 62
     7
370
    15
100
AcDbLine
 10
10.4214605735
 20
-221.5020267685
 30
0.0
 11
0.4214605735
 21
-221.5020267685
 31
0.0
  0
LINE
  5
261
330
1F
100
AcDbEntity
  8
0
  6
Continuous
 62
     7
370
    15
100
AcDbLine
 10
0.4214605735
 20
-221.5020267685
 30
0.0
 11
0.4214605735
 21
-224.5020267685
 31
0.0
  0
LINE
  5
262
330
1F
100
AcDbEntity
  8
0
  6
Continuous
 62
     7
370
    15
100
AcDbLine
 10
-5.5785394265
 20
-224.5020267685
 30
0.0
 11
0.4214605735
 21
-224.5020267685
 31
0.0
  0
LINE
  5
263
330
1F
100
AcDbEntity
  8
0
  6
Continuous
 62
     7
370
    15
100
AcDbLine
 10
-5.5785394265
 20
-224.5020267685
 30
0.0
 11
-5.5785394265
 21
-221.5020267685
 31
0.0
  0
LINE
  5
264
330
1F
100
AcDbEntity
  8
0
  6
Continuous
 62
     7
370
    15
100
AcDbLine
 10
-5.5785394265
 20
-221.5020267685
 30
0.0
 11
-15.5785394265
 21
-221.5020267685
 31
0.0
  0
LINE
  5
265
330
1F
100
AcDbEntity
  8
0
  6
Continuous
 62
     7
370
    15
100
AcDbLine
 10
-15.5785394265
 20
-221.5020267685
 30
0.0
 11
-15.5785394265
 21
-224.5020267685
 31
0.0
  0
LINE
  5
266
330
1F
100
AcDbEntity
  8
0
  6
Continuous
 62
     7
370
    15
100
AcDbLine
 10
-21.5785394265
 20
-224.5020267685
 30
0.0
 11
-15.5785394265
 21
-224.5020267685
 31
0.0
  0
LINE
  5
267
330
1F
100
AcDbEntity
  8
0
  6
Continuous
 62
     7
370
    15
100
AcDbLine
 10
-21.5785394265
 20
-224.5020267685
 30
0.0
 11
-21.5785394265
 21
-221.5020267685
 31
0.0
  0
LINE
  5
268
330
1F
100
AcDbEntity
  8
0
  6
Continuous
 62
     7
370
    15
100
AcDbLine
 10
-21.5785394265
 20
-221.5020267685
 30
0.0
 11
-25.5785394265
 21
-221.5020267685
 31
0.0
  0
LINE
  5
269
330
1F
100
AcDbEntity
  8
0
  6
Continuous
 62
     7
370
    15
100
AcDbLine
 10
-25.5785394265
 20
-221.5020267685
 30
0.0
 11
-25.5785394265
 21
-215.5020267685
 31
0.0
  0
LINE
  5
26A
330
1F
100
AcDbEntity
  8
0
  6
Continuous
 62
     7
370
    15
100
AcDbLine
 10
-25.5785394265
 20
-215.5020267685
 30
0.0
 11
-24.5785394265
 21
-215.5020267685
 31
0.0
  0
LINE
  5
26B
330
1F
100
AcDbEntity
  8
0
  6
Continuous
 62
     7
370
    15
100
AcDbLine
 10
-24.5785394265
 20
-215.5020267685
 30
0.0
 11
-24.5785394265
 21
-212.5020267685
 31
0.0
  0
LINE
  5
26C
330
1F
100
AcDbEntity
  8
0
  6
Continuous
 62
     7
370
    15
100
AcDbLine
 10
-24.5785394265
 20
-212.5020267685
 30
0.0
 11
-25.5785394265
 21
-212.5020267685
 31
0.0
  0
LINE
  5
26D
330
1F
100
AcDbEntity
  8
0
  6
Continuous
 62
     7
370
    15
100
AcDbLine
 10
-25.5785394265
 20
-212.5020267685
 30
0.0
 11
-25.5785394265
 21
-207.5020267685
 31
0.0
  0
LINE
  5
26E
330
1F
100
AcDbEntity
  8
0
  6
Continuous
 62
     7
370
    15
100
AcDbLine
 10
-25.5785394265
 20
-207.5020267685
 30
0.0
 11
-29.5785394265
 21
-207.5020267685
 31
0.0
  0
LINE
  5
26F
330
1F
100
AcDbEntity
  8
0
  6
Continuous
 62
     7
370
    15
100
AcDbLine
 10
-29.5785394265
 20
-207.5020267685
 30
0.0
 11
-29.5785394265
 21
-212.5020267685
 31
0.0
  0
LINE
  5
270
330
1F
100
AcDbEntity
  8
0
  6
Continuous
 62
     7
370
    15
100
AcDbLine
 10
-29.5785394265
 20
-212.5020267685
 30
0.0
 11
-30.5785394265
 21
-212.5020267685
 31
0.0
  0
LINE
  5
271
330
1F
100
AcDbEntity
  8
0
  6
Continuous
 62
     7
370
    15
100
AcDbLine
 10
-30.5785394265
 20
-212.5020267685
 30
0.0
 11
-30.5785394265
 21
-215.5020267685
 31
0.0
  0
LINE
  5
272
330
1F
100
AcDbEntity
  8
0
  6
Continuous
 62
     7
370
    15
100
AcDbLine
 10
-30.5785394265
 20
-215.5020267685
 30
0.0
 11
-29.5785394265
 21
-215.5020267685
 31
0.0
  0
LINE
  5
273
330
1F
100
AcDbEntity
  8
0
  6
Continuous
 62
     7
370
    15
100
AcDbLine
 10
-29.5785394265
 20
-215.5020267685
 30
0.0
 11
-29.5785394265
 21
-221.5020267685
 31
0.0
  0
LINE
  5
274
330
1F
100
AcDbEntity
  8
0
  6
Continuous
 62
     7
370
    15
100
AcDbLine
 10
-29.5785394265
 20
-221.5020267685
 30
0.0
 11
-33.5785394265
 21
-221.5020267685
 31
0.0
  0
LINE
  5
275
330
1F
100
AcDbEntity
  8
0
  6
Continuous
 62
     7
370
    15
100
AcDbLine
 10
-33.5785394265
 20
-221.5020267685
 30
0.0
 11
-33.5785394265
 21
-224.5020267685
 31
0.0
  0
LINE
  5
276
330
1F
100
AcDbEntity
  8
0
  6
Continuous
 62
     7
370
    15
100
AcDbLine
 10
-39.5785394265
 20
-224.5020267685
 30
0.0
 11
-33.5785394265
 21
-224.5020267685
 31
0.0
  0
LINE
  5
277
330
1F
100
AcDbEntity
  8
0
  6
Continuous
 62
     7
370
    15
100
AcDbLine
 10
-39.5785394265
 20
-224.5020267685
 30
0.0
 11
-39.5785394265
 21
-221.5020267685
 31
0.0
  0
LINE
  5
278
330
1F
100
AcDbEntity
  8
0
  6
Continuous
 62
     7
370
    15
100
AcDbLine
 10
-39.5785394265
 20
-221.5020267685
 30
0.0
 11
-49.5785394265
 21
-221.5020267685
 31
0.0
  0
LINE
  5
279
330
1F
100
AcDbEntity
  8
0
  6
Continuous
 62
     7
370
    15
100
AcDbLine
 10
-49.5785394265
 20
-221.5020267685
 30
0.0
 11
-49.5785394265
 21
-224.5020267685
 31
0.0
  0
LINE
  5
27A
330
1F
100
AcDbEntity
  8
0
  6
Continuous
 62
     7
370
    15
100
AcDbLine
 10
-55.5785394265
 20
-224.5020267685
 30
0.0
 11
-49.5785394265
 21
-224.5020267685
 31
0.0
  0
LINE
  5
27B
330
1F
100
AcDbEntity
  8
0
  6
Continuous
 62
     7
370
    15
100
AcDbLine
 10
-55.5785394265
 20
-224.5020267685
 30
0.0
 11
-55.5785394265
 21
-221.5020267685
 31
0.0
  0
LINE
  5
27C
330
1F
100
AcDbEntity
  8
0
  6
Continuous
 62
     7
370
    15
100
AcDbLine
 10
-55.5785394265
 20
-221.5020267685
 30
0.0
 11
-65.5785394265
 21
-221.5020267685
 31
0.0
  0
LINE
  5
27D
330
1F
100
AcDbEntity
  8
0
  6
Continuous
 62
     7
370
    15
100
AcDbLine
 10
-65.5785394265
 20
-221.5020267685
 30
0.0
 11
-65.5785394265
 21
-224.5020267685
 31
0.0
  0
LINE
  5
27E
330
1F
100
AcDbEntity
  8
0
  6
Continuous
 62
     7
370
    15
100
AcDbLine
 10
-71.5785394265
 20
-224.5020267685
 30
0.0
 11
-65.5785394265
 21
-224.5020267685
 31
0.0
  0
LINE
  5
27F
330
1F
100
AcDbEntity
  8
0
  6
Continuous
 62
     7
370
    15
100
AcDbLine
 10
-71.5785394265
 20
-224.5020267685
 30
0.0
 11
-71.5785394265
 21
-221.5020267685
 31
0.0
  0
LINE
  5
280
330
1F
100
AcDbEntity
  8
0
  6
Continuous
 62
     7
370
    15
100
AcDbLine
 10
-71.5785394265
 20
-221.5020267685
 30
0.0
 11
-81.5785394265
 21
-221.5020267685
 31
0.0
  0
LINE
  5
281
330
1F
100
AcDbEntity
  8
0
  6
Continuous
 62
     7
370
    15
100
AcDbLine
 10
-81.5785394265
 20
-221.5020267685
 30
0.0
 11
-81.5785394265
 21
-224.5020267685
 31
0.0
  0
LINE
  5
282
330
1F
100
AcDbEntity
  8
0
  6
Continuous
 62
     7
370
    15
100
AcDbLine
 10
-87.5785394265
 20
-224.5020267685
 30
0.0
 11
-81.5785394265
 21
-224.5020267685
 31
0.0
  0
LINE
  5
283
330
1F
100
AcDbEntity
  8
0
  6
Continuous
 62
     7
370
    15
100
AcDbLine
 10
-87.5785394265
 20
-224.5020267685
 30
0.0
 11
-87.5785394265
 21
-221.5020267685
 31
0.0
  0
LINE
  5
284
330
1F
100
AcDbEntity
  8
0
  6
Continuous
 62
     7
370
    15
100
AcDbLine
 10
-87.5785394265
 20
-221.5020267685
 30
0.0
 11
-92.5785394265
 21
-221.5020267685
 31
0.0
  0
LINE
  5
285
330
1F
100
AcDbEntity
  8
0
  6
Continuous
 62
     7
370
    15
100
AcDbLine
 10
-92.5785394265
 20
-221.5020267685
 30
0.0
 11
-92.5785394265
 21
-224.5020267685
 31
0.0
  0
LINE
  5
286
330
1F
100
AcDbEntity
  8
0
  6
Continuous
 62
     7
370
    15
100
AcDbLine
 10
-97.5785394265
 20
-224.5020267685
 30
0.0
 11
-92.5785394265
 21
-224.5020267685
 31
0.0
  0
LINE
  5
287
330
1F
100
AcDbEntity
  8
0
  6
Continuous
 62
     7
370
    15
100
AcDbLine
 10
-97.5785394265
 20
-224.5020267685
 30
0.0
 11
-101.6686368498
 21
-220.4119293452
 31
0.0
  0
LINE
  5
288
330
1F
100
AcDbEntity
  8
0
  6
Continuous
 62
     7
370
    15
100
AcDbLine
 10
-101.6686368498
 20
-220.4119293452
 30
0.0
 11
-97.4259961627
 21
-216.1692886581
 31
0.0
  0
LINE
  5
289
330
1F
100
AcDbEntity
  8
0
  6
Continuous
 62
     7
370
    15
100
AcDbLine
 10
-97.4259961627
 20
-216.1692886581
 30
0.0
 11
-98.8402097251
 21
-214.7550750957
 31
0.0
  0
LINE
  5
28A
330
1F
100
AcDbEntity
  8
0
  6
Continuous
 62
     7
370
    15
100
AcDbLine
 10
-98.8402097251
 20
-214.7550750957
 30
0.0
 11
-103.0828504122
 21
-218.9977157828
 31
0.0
  0
LINE
  5
28B
330
1F
100
AcDbEntity
  8
0
  6
Continuous
 62
     7
370
    15
100
AcDbLine
 10
-103.0828504122
 20
-218.9977157828
 30
0.0
 11
-106.6183843181
 21
-215.4621818769
 31
0.0
  0
LINE
  5
28C
330
1F
100
AcDbEntity
  8
0
  6
Continuous
 62
     7
370
    15
100
AcDbLine
 10
-106.6183843181
 20
-215.4621818769
 30
0.0
 11
-102.375743631
 21
-211.2195411898
 31
0.0
  0
LINE
  5
28D
330
1F
100
AcDbEntity
  8
0
  6
Continuous
 62
     7
370
    15
100
AcDbLine
 10
-102.375743631
 20
-211.2195411898
 30
0.0
 11
-105.911277537
 21
-207.6840072839
 31
0.0
  0
LINE
  5
28E
330
1F
100
AcDbEntity
  8
0
  6
Continuous
 62
     7
370
    15
100
AcDbLine
 10
-105.911277537
 20
-207.6840072839
 30
0.0
 11
-110.1539182241
 21
-211.926647971
 31
0.0
  0
LINE
  5
28F
330
1F
100
AcDbEntity
  8
0
  6
Continuous
 62
     7
370
    15
100
AcDbLine
 10
-110.1539182241
 20
-211.926647971
 30
0.0
 11
-113.68945213
 21
-208.391114065
 31
0.0
  0
LINE
  5
290
330
1F
100
AcDbEntity
  8
0
  6
Continuous
 62
     7
370
    15
100
AcDbLine
 10
-113.68945213
 20
-208.391114065
 30
0.0
 11
-109.4468114429
 21
-204.1484733779
 31
0.0
  0
LINE
  5
291
330
1F
100
AcDbEntity
  8
0
  6
Continuous
 62
     7
370
    15
100
AcDbLine
 10
-109.4468114429
 20
-204.1484733779
 30
0.0
 11
-111.921685177
 21
-201.6735996438
 31
0.0
  0
LINE
  5
292
330
1F
100
AcDbEntity
  8
0
  6
Continuous
 62
     7
370
    15
100
AcDbLine
 10
-111.921685177
 20
-201.6735996438
 30
0.0
 11
-107.6790444899
 21
-197.4309589567
 31
0.0
  0
LINE
  5
293
330
1F
100
AcDbEntity
  8
0
  6
Continuous
 62
     7
370
    15
100
AcDbLine
 10
-107.6790444899
 20
-197.4309589567
 30
0.0
 11
-106.9719377087
 21
-198.1380657378
 31
0.0
  0
LINE
  5
294
330
1F
100
AcDbEntity
  8
0
  6
Continuous
 62
     7
370
    15
100
AcDbLine
 10
-106.9719377087
 20
-198.1380657378
 30
0.0
 11
-104.8506173652
 21
-196.0167453943
 31
0.0
  0
LINE
  5
295
330
1F
100
AcDbEntity
  8
0
  6
Continuous
 62
     7
370
    15
100
AcDbLine
 10
-104.8506173652
 20
-196.0167453943
 30
0.0
 11
-105.5577241464
 21
-195.3096386131
 31
0.0
  0
LINE
  5
296
330
1F
100
AcDbEntity
  8
0
  6
Continuous
 62
     7
370
    15
100
AcDbLine
 10
-105.5577241464
 20
-195.3096386131
 30
0.0
 11
-102.0221902404
 21
-191.7741047072
 31
0.0
  0
LINE
  5
297
330
1F
100
AcDbEntity
  8
0
  6
Continuous
 62
     7
370
    15
100
AcDbLine
 10
-102.0221902404
 20
-191.7741047072
 30
0.0
 11
-104.8506173652
 21
-188.9456775824
 31
0.0
  0
LINE
  5
298
330
1F
100
AcDbEntity
  8
0
  6
Continuous
 62
     7
370
    15
100
AcDbLine
 10
-104.8506173652
 20
-188.9456775824
 30
0.0
 11
-108.3861512711
 21
-192.4812114884
 31
0.0
  0
LINE
  5
299
330
1F
100
AcDbEntity
  8
0
  6
Continuous
 62
     7
370
    15
100
AcDbLine
 10
-108.3861512711
 20
-192.4812114884
 30
0.0
 11
-109.0932580523
 21
-191.7741047072
 31
0.0
  0
LINE
  5
29A
330
1F
100
AcDbEntity
  8
0
  6
Continuous
 62
     7
370
    15
100
AcDbLine
 10
-109.0932580523
 20
-191.7741047072
 30
0.0
 11
-111.2145783959
 21
-193.8954250507
 31
0.0
  0
LINE
  5
29B
330
1F
100
AcDbEntity
  8
0
  6
Continuous
 62
     7
370
    15
100
AcDbLine
 10
-111.2145783959
 20
-193.8954250507
 30
0.0
 11
-110.5074716147
 21
-194.6025318319
 31
0.0
  0
LINE
  5
29C
330
1F
100
AcDbEntity
  8
0
  6
Continuous
 62
     7
370
    15
100
AcDbLine
 10
-110.5074716147
 20
-194.6025318319
 30
0.0
 11
-114.7501123018
 21
-198.845172519
 31
0.0
  0
LINE
  5
29D
330
1F
100
AcDbEntity
  8
0
  6
Continuous
 62
     7
370
    15
100
AcDbLine
 10
-114.7501123018
 20
-198.845172519
 30
0.0
 11
-117.2249860359
 21
-196.3702987849
 31
0.0
  0
LINE
  5
29E
330
1F
100
AcDbEntity
  8
0
  6
Continuous
 62
     7
370
    15
100
AcDbLine
 10
-117.2249860359
 20
-196.3702987849
 30
0.0
 11
-121.4676267231
 21
-200.612939472
 31
0.0
  0
LINE
  5
29F
330
1F
100
AcDbEntity
  8
0
  6
Continuous
 62
     7
370
    15
100
AcDbLine
 10
-121.4676267231
 20
-200.612939472
 30
0.0
 11
-125.003160629
 21
-197.0774055661
 31
0.0
  0
LINE
  5
2A0
330
1F
100
AcDbEntity
  8
0
  6
Continuous
 62
     7
370
    15
100
AcDbLine
 10
-125.003160629
 20
-197.0774055661
 30
0.0
 11
-120.7605199419
 21
-192.8347648789
 31
0.0
  0
LINE
  5
2A1
330
1F
100
AcDbEntity
  8
0
  6
Continuous
 62
     7
370
    15
100
AcDbLine
 10
-120.7605199419
 20
-192.8347648789
 30
0.0
 11
-124.2960538478
 21
-189.299230973
 31
0.0
  0
LINE
  5
2A2
330
1F
100
AcDbEntity
  8
0
  6
Continuous
 62
     7
370
    15
100
AcDbLine
 10
-124.2960538478
 20
-189.299230973
 30
0.0
 11
-128.5386945349
 21
-193.5418716601
 31
0.0
  0
LINE
  5
2A3
330
1F
100
AcDbEntity
  8
0
  6
Continuous
 62
     7
370
    15
100
AcDbLine
 10
-128.5386945349
 20
-193.5418716601
 30
0.0
 11
-132.0742284409
 21
-190.0063377542
 31
0.0
  0
LINE
  5
2A4
330
1F
100
AcDbEntity
  8
0
  6
Continuous
 62
     7
370
    15
100
AcDbLine
 10
-132.0742284409
 20
-190.0063377542
 30
0.0
 11
-127.8315877537
 21
-185.7636970671
 31
0.0
  0
LINE
  5
2A5
330
1F
100
AcDbEntity
  8
0
  6
Continuous
 62
     7
370
    15
100
AcDbLine
 10
-127.8315877537
 20
-185.7636970671
 30
0.0
 11
-129.2458013161
 21
-184.3494835047
 31
0.0
  0
LINE
  5
2A6
330
1F
100
AcDbEntity
  8
0
  6
Continuous
 62
     7
370
    15
100
AcDbLine
 10
-129.2458013161
 20
-184.3494835047
 30
0.0
 11
-133.4884420032
 21
-188.5921241918
 31
0.0
  0
LINE
  5
2A7
330
1F
100
AcDbEntity
  8
0
  6
Continuous
 62
     7
370
    15
100
AcDbLine
 10
-133.4884420032
 20
-188.5921241918
 30
0.0
 11
-137.5785394265
 21
-184.5020267685
 31
0.0
  0
LINE
  5
2A8
330
1F
100
AcDbEntity
  8
0
  6
Continuous
 62
     7
370
    15
100
AcDbLine
 10
-137.5785394265
 20
-172.0081354115
 30
0.0
 11
-137.5785394265
 21
-184.5020267685
 31
0.0
  0
LINE
  5
2A9
330
1F
100
AcDbEntity
  8
0
  6
Continuous
 62
     7
370
    15
100
AcDbLine
 10
-126.334687563
 20
-154.0267597741
 30
0.0
 11
-33.8223912901
 21
-108.9772937629
 31
0.0
  0
LINE
  5
2AA
330
1F
100
AcDbEntity
  8
0
  6
Continuous
 62
     7
370
    15
100
AcDbLine
 10
-22.5785394265
 20
-90.9959181256
 30
0.0
 11
-22.5785394265
 21
-88.5020267685
 31
0.0
  0
LINE
  5
2AB
330
1F
100
AcDbEntity
  8
0
  6
Continuous
 62
     7
370
    15
100
AcDbLine
 10
-16.5785394265
 20
-88.5020267685
 30
0.0
 11
-22.5785394265
 21
-88.5020267685
 31
0.0
  0
LINE
  5
2AC
330
1F
100
AcDbEntity
  8
0
  6
Continuous
 62
     7
370
    15
100
AcDbLine
 10
-16.5785394265
 20
-82.5020267685
 30
0.0
 11
-16.5785394265
 21
-88.5020267685
 31
0.0
  0
LINE
  5
2AD
330
1F
100
AcDbEntity
  8
0
  6
Continuous
 62
     7
370
    15
100
AcDbLine
 10
-22.5785394265
 20
-82.5020267685
 30
0.0
 11
-16.5785394265
 21
-82.5020267685
 31
0.0
  0
LINE
  5
2AE
330
1F
100
AcDbEntity
  8
0
  6
Continuous
 62
     7
370
    15
100
AcDbLine
 10
-22.5785394265
 20
-82.5020267685
 30
0.0
 11
-22.5785394265
 21
-77.5020267685
 31
0.0
  0
LINE
  5
2AF
330
1F
100
AcDbEntity
  8
0
  6
Continuous
 62
     7
370
    15
100
AcDbLine
 10
-16.5785394265
 20
-77.5020267685
 30
0.0
 11
-22.5785394265
 21
-77.5020267685
 31
0.0
  0
LINE
  5
2B0
330
1F
100
AcDbEntity
  8
0
  6
Continuous
 62
     7
370
    15
100
AcDbLine
 10
-16.5785394265
 20
-71.5020267685
 30
0.0
 11
-16.5785394265
 21
-77.5020267685
 31
0.0
  0
LINE
  5
2B1
330
1F
100
AcDbEntity
  8
0
  6
Continuous
 62
     7
370
    15
100
AcDbLine
 10
-22.5785394265
 20
-71.5020267685
 30
0.0
 11
-16.5785394265
 21
-71.5020267685
 31
0.0
  0
LINE
  5
2B2
330
1F
100
AcDbEntity
  8
0
  6
Continuous
 62
     7
370
    15
100
AcDbLine
 10
-22.5785394265
 20
-71.5020267685
 30
0.0
 11
-22.5785394265
 21
-65.5020267685
 31
0.0
  0
LINE
  5
2B3
330
1F
100
AcDbEntity
  8
0
  6
Continuous
 62
     7
370
    15
100
AcDbLine
 10
-22.5785394265
 20
-65.5020267685
 30
0.0
 11
-16.5785394265
 21
-65.5020267685
 31
0.0
  0
LINE
  5
2B4
330
1F
100
AcDbEntity
  8
0
  6
Continuous
 62
     7
370
    15
100
AcDbLine
 10
-16.5785394265
 20
-65.5020267685
 30
0.0
 11
-16.5785394265
 21
-59.5020267685
 31
0.0
  0
LINE
  5
2B5
330
1F
100
AcDbEntity
  8
0
  6
Continuous
 62
     7
370
    15
100
AcDbLine
 10
-16.5785394265
 20
-59.5020267685
 30
0.0
 11
-22.5785394265
 21
-59.5020267685
 31
0.0
  0
LINE
  5
2B6
330
1F
100
AcDbEntity
  8
0
  6
Continuous
 62
     7
370
    15
100
AcDbLine
 10
-22.5785394265
 20
-59.5020267685
 30
0.0
 11
-22.5785394265
 21
-54.5020267685
 31
0.0
  0
LINE
  5
2B7
330
1F
100
AcDbEntity
  8
0
  6
Continuous
 62
     7
370
    15
100
AcDbLine
 10
-22.5785394265
 20
-54.5020267685
 30
0.0
 11
-16.5785394265
 21
-54.5020267685
 31
0.0
  0
LINE
  5
2B8
330
1F
100
AcDbEntity
  8
0
  6
Continuous
 62
     7
370
    15
100
AcDbLine
 10
-16.5785394265
 20
-54.5020267685
 30
0.0
 11
-16.5785394265
 21
-48.5020267685
 31
0.0
  0
LINE
  5
2B9
330
1F
100
AcDbEntity
  8
0
  6
Continuous
 62
     7
370
    15
100
AcDbLine
 10
-16.5785394265
 20
-48.5020267685
 30
0.0
 11
-22.5785394265
 21
-48.5020267685
 31
0.0
  0
LINE
  5
2BA
330
1F
100
AcDbEntity
  8
0
  6
Continuous
 62
     7
370
    15
100
AcDbLine
 10
-22.5785394265
 20
-48.5020267685
 30
0.0
 11
-22.5785394265
 21
-46.0081354115
 31
0.0
  0
LINE
  5
2BB
330
1F
100
AcDbEntity
  8
0
  6
Continuous
 62
     7
370
    15
100
AcDbLine
 10
-33.8223912901
 20
-28.0267597741
 30
0.0
 11
-126.334687563
 21
17.0227062371
 31
0.0
  0
LINE
  5
2BC
330
1F
100
AcDbEntity
  8
0
  6
Continuous
 62
     7
370
    15
100
AcDbLine
 10
-137.5785394265
 20
47.4979732315
 30
0.0
 11
-137.5785394265
 21
35.0040818744
 31
0.0
  0
LINE
  5
2BD
330
1F
100
AcDbEntity
  8
0
  6
Continuous
 62
     7
370
    15
100
AcDbLine
 10
-133.4884420032
 20
51.5880706548
 30
0.0
 11
-137.5785394265
 21
47.4979732315
 31
0.0
  0
LINE
  5
2BE
330
1F
100
AcDbEntity
  8
0
  6
Continuous
 62
     7
370
    15
100
AcDbLine
 10
-129.2458013161
 20
47.3454299677
 30
0.0
 11
-133.4884420032
 21
51.5880706548
 31
0.0
  0
LINE
  5
2BF
330
1F
100
AcDbEntity
  8
0
  6
Continuous
 62
     7
370
    15
100
AcDbLine
 10
-127.8315877537
 20
48.75964353
 30
0.0
 11
-129.2458013161
 21
47.3454299677
 31
0.0
  0
LINE
  5
2C0
330
1F
100
AcDbEntity
  8
0
  6
Continuous
 62
     7
370
    15
100
AcDbLine
 10
-132.0742284409
 20
53.0022842172
 30
0.0
 11
-127.8315877537
 21
48.75964353
 31
0.0
  0
LINE
  5
2C1
330
1F
100
AcDbEntity
  8
0
  6
Continuous
 62
     7
370
    15
100
AcDbLine
 10
-128.5386945349
 20
56.5378181231
 30
0.0
 11
-132.0742284409
 21
53.0022842172
 31
0.0
  0
LINE
  5
2C2
330
1F
100
AcDbEntity
  8
0
  6
Continuous
 62
     7
370
    15
100
AcDbLine
 10
-124.2960538478
 20
52.295177436
 30
0.0
 11
-128.5386945349
 21
56.5378181231
 31
0.0
  0
LINE
  5
2C3
330
1F
100
AcDbEntity
  8
0
  6
Continuous
 62
     7
370
    15
100
AcDbLine
 10
-120.7605199419
 20
55.8307113419
 30
0.0
 11
-124.2960538478
 21
52.295177436
 31
0.0
  0
LINE
  5
2C4
330
1F
100
AcDbEntity
  8
0
  6
Continuous
 62
     7
370
    15
100
AcDbLine
 10
-125.003160629
 20
60.073352029
 30
0.0
 11
-120.7605199419
 21
55.8307113419
 31
0.0
  0
LINE
  5
2C5
330
1F
100
AcDbEntity
  8
0
  6
Continuous
 62
     7
370
    15
100
AcDbLine
 10
-121.4676267231
 20
63.608885935
 30
0.0
 11
-125.003160629
 21
60.073352029
 31
0.0
  0
LINE
  5
2C6
330
1F
100
AcDbEntity
  8
0
  6
Continuous
 62
     7
370
    15
100
AcDbLine
 10
-117.2249860359
 20
59.3662452478
 30
0.0
 11
-121.4676267231
 21
63.608885935
 31
0.0
  0
LINE
  5
2C7
330
1F
100
AcDbEntity
  8
0
  6
Continuous
 62
     7
370
    15
100
AcDbLine
 10
-114.7501123018
 20
61.841118982
 30
0.0
 11
-117.2249860359
 21
59.3662452478
 31
0.0
  0
LINE
  5
2C8
330
1F
100
AcDbEntity
  8
0
  6
Continuous
 62
     7
370
    15
100
AcDbLine
 10
-110.5074716147
 20
57.5984782949
 30
0.0
 11
-114.7501123018
 21
61.841118982
 31
0.0
  0
LINE
  5
2C9
330
1F
100
AcDbEntity
  8
0
  6
Continuous
 62
     7
370
    15
100
AcDbLine
 10
-111.2145783959
 20
56.8913715137
 30
0.0
 11
-110.5074716147
 21
57.5984782949
 31
0.0
  0
LINE
  5
2CA
330
1F
100
AcDbEntity
  8
0
  6
Continuous
 62
     7
370
    15
100
AcDbLine
 10
-109.0932580523
 20
54.7700511701
 30
0.0
 11
-111.2145783959
 21
56.8913715137
 31
0.0
  0
LINE
  5
2CB
330
1F
100
AcDbEntity
  8
0
  6
Continuous
 62
     7
370
    15
100
AcDbLine
 10
-108.3861512711
 20
55.4771579513
 30
0.0
 11
-109.0932580523
 21
54.7700511701
 31
0.0
  0
LINE
  5
2CC
330
1F
100
AcDbEntity
  8
0
  6
Continuous
 62
     7
370
    15
100
AcDbLine
 10
-104.8506173652
 20
51.9416240454
 30
0.0
 11
-108.3861512711
 21
55.4771579513
 31
0.0
  0
LINE
  5
2CD
330
1F
100
AcDbEntity
  8
0
  6
Continuous
 62
     7
370
    15
100
AcDbLine
 10
-102.0221902404
 20
54.7700511701
 30
0.0
 11
-104.8506173652
 21
51.9416240454
 31
0.0
  0
LINE
  5
2CE
330
1F
100
AcDbEntity
  8
0
  6
Continuous
 62
     7
370
    15
100
AcDbLine
 10
-105.5577241464
 20
58.3055850761
 30
0.0
 11
-102.0221902404
 21
54.7700511701
 31
0.0
  0
LINE
  5
2CF
330
1F
100
AcDbEntity
  8
0
  6
Continuous
 62
     7
370
    15
100
AcDbLine
 10
-104.8506173652
 20
59.0126918572
 30
0.0
 11
-105.5577241464
 21
58.3055850761
 31
0.0
  0
LINE
  5
2D0
330
1F
100
AcDbEntity
  8
0
  6
Continuous
 62
     7
370
    15
100
AcDbLine
 10
-106.9719377087
 20
61.1340122008
 30
0.0
 11
-104.8506173652
 21
59.0126918572
 31
0.0
  0
LINE
  5
2D1
330
1F
100
AcDbEntity
  8
0
  6
Continuous
 62
     7
370
    15
100
AcDbLine
 10
-107.6790444899
 20
60.4269054196
 30
0.0
 11
-106.9719377087
 21
61.1340122008
 31
0.0
  0
LINE
  5
2D2
330
1F
100
AcDbEntity
  8
0
  6
Continuous
 62
     7
370
    15
100
AcDbLine
 10
-111.921685177
 20
64.6695461067
 30
0.0
 11
-107.6790444899
 21
60.4269054196
 31
0.0
  0
LINE
  5
2D3
330
1F
100
AcDbEntity
  8
0
  6
Continuous
 62
     7
370
    15
100
AcDbLine
 10
-109.4468114429
 20
67.1444198409
 30
0.0
 11
-111.921685177
 21
64.6695461067
 31
0.0
  0
LINE
  5
2D4
330
1F
100
AcDbEntity
  8
0
  6
Continuous
 62
     7
370
    15
100
AcDbLine
 10
-113.68945213
 20
71.387060528
 30
0.0
 11
-109.4468114429
 21
67.1444198409
 31
0.0
  0
LINE
  5
2D5
330
1F
100
AcDbEntity
  8
0
  6
Continuous
 62
     7
370
    15
100
AcDbLine
 10
-110.1539182241
 20
74.9225944339
 30
0.0
 11
-113.68945213
 21
71.387060528
 31
0.0
  0
LINE
  5
2D6
330
1F
100
AcDbEntity
  8
0
  6
Continuous
 62
     7
370
    15
100
AcDbLine
 10
-105.911277537
 20
70.6799537468
 30
0.0
 11
-110.1539182241
 21
74.9225944339
 31
0.0
  0
LINE
  5
2D7
330
1F
100
AcDbEntity
  8
0
  6
Continuous
 62
     7
370
    15
100
AcDbLine
 10
-102.375743631
 20
74.2154876528
 30
0.0
 11
-105.911277537
 21
70.6799537468
 31
0.0
  0
LINE
  5
2D8
330
1F
100
AcDbEntity
  8
0
  6
Continuous
 62
     7
370
    15
100
AcDbLine
 10
-106.6183843181
 20
78.4581283399
 30
0.0
 11
-102.375743631
 21
74.2154876528
 31
0.0
  0
LINE
  5
2D9
330
1F
100
AcDbEntity
  8
0
  6
Continuous
 62
     7
370
    15
100
AcDbLine
 10
-103.0828504122
 20
81.9936622458
 30
0.0
 11
-106.6183843181
 21
78.4581283399
 31
0.0
  0
LINE
  5
2DA
330
1F
100
AcDbEntity
  8
0
  6
Continuous
 62
     7
370
    15
100
AcDbLine
 10
-98.8402097251
 20
77.7510215587
 30
0.0
 11
-103.0828504122
 21
81.9936622458
 31
0.0
  0
LINE
  5
2DB
330
1F
100
AcDbEntity
  8
0
  6
Continuous
 62
     7
370
    15
100
AcDbLine
 10
-97.4259961627
 20
79.1652351211
 30
0.0
 11
-98.8402097251
 21
77.7510215587
 31
0.0
  0
LINE
  5
2DC
330
1F
100
AcDbEntity
  8
0
  6
Continuous
 62
     7
370
    15
100
AcDbLine
 10
-101.6686368498
 20
83.4078758082
 30
0.0
 11
-97.4259961627
 21
79.1652351211
 31
0.0
  0
LINE
  5
2DD
330
1F
100
AcDbEntity
  8
0
  6
Continuous
 62
     7
370
    15
100
AcDbLine
 10
-97.5785394265
 20
87.4979732315
 30
0.0
 11
-101.6686368498
 21
83.4078758082
 31
0.0
  0
LINE
  5
2DE
330
1F
100
AcDbEntity
  8
0
  6
Continuous
 62
     7
370
    15
100
AcDbLine
 10
-92.5785394265
 20
87.4979732315
 30
0.0
 11
-97.5785394265
 21
87.4979732315
 31
0.0
  0
LINE
  5
2DF
330
1F
100
AcDbEntity
  8
0
  6
Continuous
 62
     7
370
    15
100
AcDbLine
 10
-92.5785394265
 20
84.4979732315
 30
0.0
 11
-92.5785394265
 21
87.4979732315
 31
0.0
  0
LINE
  5
2E0
330
1F
100
AcDbEntity
  8
0
  6
Continuous
 62
     7
370
    15
100
AcDbLine
 10
-87.5785394265
 20
84.4979732315
 30
0.0
 11
-92.5785394265
 21
84.4979732315
 31
0.0
  0
LINE
  5
2E1
330
1F
100
AcDbEntity
  8
0
  6
Continuous
 62
     7
370
    15
100
AcDbLine
 10
-87.5785394265
 20
87.4979732315
 30
0.0
 11
-87.5785394265
 21
84.4979732315
 31
0.0
  0
LINE
  5
2E2
330
1F
100
AcDbEntity
  8
0
  6
Continuous
 62
     7
370
    15
100
AcDbLine
 10
-81.5785394265
 20
87.4979732315
 30
0.0
 11
-87.5785394265
 21
87.4979732315
 31
0.0
  0
LINE
  5
2E3
330
1F
100
AcDbEntity
  8
0
  6
Continuous
 62
     7
370
    15
100
AcDbLine
 10
-81.5785394265
 20
84.4979732315
 30
0.0
 11
-81.5785394265
 21
87.4979732315
 31
0.0
  0
LINE
  5
2E4
330
1F
100
AcDbEntity
  8
0
  6
Continuous
 62
     7
370
    15
100
AcDbLine
 10
-71.5785394265
 20
84.4979732315
 30
0.0
 11
-81.5785394265
 21
84.4979732315
 31
0.0
  0
LINE
  5
2E5
330
1F
100
AcDbEntity
  8
0
  6
Continuous
 62
     7
370
    15
100
AcDbLine
 10
-71.5785394265
 20
87.4979732315
 30
0.0
 11
-71.5785394265
 21
84.4979732315
 31
0.0
  0
LINE
  5
2E6
330
1F
100
AcDbEntity
  8
0
  6
Continuous
 62
     7
370
    15
100
AcDbLine
 10
-65.5785394265
 20
87.4979732315
 30
0.0
 11
-71.5785394265
 21
87.4979732315
 31
0.0
  0
LINE
  5
2E7
330
1F
100
AcDbEntity
  8
0
  6
Continuous
 62
     7
370
    15
100
AcDbLine
 10
-65.5785394265
 20
84.4979732315
 30
0.0
 11
-65.5785394265
 21
87.4979732315
 31
0.0
  0
LINE
  5
2E8
330
1F
100
AcDbEntity
  8
0
  6
Continuous
 62
     7
370
    15
100
AcDbLine
 10
-55.5785394265
 20
84.4979732315
 30
0.0
 11
-65.5785394265
 21
84.4979732315
 31
0.0
  0
LINE
  5
2E9
330
1F
100
AcDbEntity
  8
0
  6
Continuous
 62
     7
370
    15
100
AcDbLine
 10
-55.5785394265
 20
87.4979732315
 30
0.0
 11
-55.5785394265
 21
84.4979732315
 31
0.0
  0
LINE
  5
2EA
330
1F
100
AcDbEntity
  8
0
  6
Continuous
 62
     7
370
    15
100
AcDbLine
 10
-49.5785394265
 20
87.4979732315
 30
0.0
 11
-55.5785394265
 21
87.4979732315
 31
0.0
  0
LINE
  5
2EB
330
1F
100
AcDbEntity
  8
0
  6
Continuous
 62
     7
370
    15
100
AcDbLine
 10
-49.5785394265
 20
84.4979732315
 30
0.0
 11
-49.5785394265
 21
87.4979732315
 31
0.0
  0
LINE
  5
2EC
330
1F
100
AcDbEntity
  8
0
  6
Continuous
 62
     7
370
    15
100
AcDbLine
 10
-39.5785394265
 20
84.4979732315
 30
0.0
 11
-49.5785394265
 21
84.4979732315
 31
0.0
  0
LINE
  5
2ED
330
1F
100
AcDbEntity
  8
0
  6
Continuous
 62
     7
370
    15
100
AcDbLine
 10
-39.5785394265
 20
87.4979732315
 30
0.0
 11
-39.5785394265
 21
84.4979732315
 31
0.0
  0
LINE
  5
2EE
330
1F
100
AcDbEntity
  8
0
  6
Continuous
 62
     7
370
    15
100
AcDbLine
 10
-33.5785394265
 20
87.4979732315
 30
0.0
 11
-39.5785394265
 21
87.4979732315
 31
0.0
  0
LINE
  5
2EF
330
1F
100
AcDbEntity
  8
0
  6
Continuous
 62
     7
370
    15
100
AcDbLine
 10
-33.5785394265
 20
84.4979732315
 30
0.0
 11
-33.5785394265
 21
87.4979732315
 31
0.0
  0
LINE
  5
2F0
330
1F
100
AcDbEntity
  8
0
  6
Continuous
 62
     7
370
    15
100
AcDbLine
 10
-29.5785394265
 20
84.4979732315
 30
0.0
 11
-33.5785394265
 21
84.4979732315
 31
0.0
  0
LINE
  5
2F1
330
1F
100
AcDbEntity
  8
0
  6
Continuous
 62
     7
370
    15
100
AcDbLine
 10
-29.5785394265
 20
78.4979732315
 30
0.0
 11
-29.5785394265
 21
84.4979732315
 31
0.0
  0
LINE
  5
2F2
330
1F
100
AcDbEntity
  8
0
  6
Continuous
 62
     7
370
    15
100
AcDbLine
 10
-30.5785394265
 20
78.4979732315
 30
0.0
 11
-29.5785394265
 21
78.4979732315
 31
0.0
  0
LINE
  5
2F3
330
1F
100
AcDbEntity
  8
0
  6
Continuous
 62
     7
370
    15
100
AcDbLine
 10
-30.5785394265
 20
75.4979732315
 30
0.0
 11
-30.5785394265
 21
78.4979732315
 31
0.0
  0
LINE
  5
2F4
330
1F
100
AcDbEntity
  8
0
  6
Continuous
 62
     7
370
    15
100
AcDbLine
 10
-29.5785394265
 20
75.4979732315
 30
0.0
 11
-30.5785394265
 21
75.4979732315
 31
0.0
  0
LINE
  5
2F5
330
1F
100
AcDbEntity
  8
0
  6
Continuous
 62
     7
370
    15
100
AcDbLine
 10
-29.5785394265
 20
70.4979732315
 30
0.0
 11
-29.5785394265
 21
75.4979732315
 31
0.0
  0
LINE
  5
2F6
330
1F
100
AcDbEntity
  8
0
  6
Continuous
 62
     7
370
    15
100
AcDbLine
 10
-25.5785394265
 20
70.4979732315
 30
0.0
 11
-29.5785394265
 21
70.4979732315
 31
0.0
  0
LINE
  5
2F7
330
1F
100
AcDbEntity
  8
0
  6
Continuous
 62
     7
370
    15
100
AcDbLine
 10
-25.5785394265
 20
75.4979732315
 30
0.0
 11
-25.5785394265
 21
70.4979732315
 31
0.0
  0
LINE
  5
2F8
330
1F
100
AcDbEntity
  8
0
  6
Continuous
 62
     7
370
    15
100
AcDbLine
 10
-24.5785394265
 20
75.4979732315
 30
0.0
 11
-25.5785394265
 21
75.4979732315
 31
0.0
  0
LINE
  5
2F9
330
1F
100
AcDbEntity
  8
0
  6
Continuous
 62
     7
370
    15
100
AcDbLine
 10
-24.5785394265
 20
78.4979732315
 30
0.0
 11
-24.5785394265
 21
75.4979732315
 31
0.0
  0
LINE
  5
2FA
330
1F
100
AcDbEntity
  8
0
  6
Continuous
 62
     7
370
    15
100
AcDbLine
 10
-25.5785394265
 20
78.4979732315
 30
0.0
 11
-24.5785394265
 21
78.4979732315
 31
0.0
  0
LINE
  5
2FB
330
1F
100
AcDbEntity
  8
0
  6
Continuous
 62
     7
370
    15
100
AcDbLine
 10
-25.5785394265
 20
84.4979732315
 30
0.0
 11
-25.5785394265
 21
78.4979732315
 31
0.0
  0
LINE
  5
2FC
330
1F
100
AcDbEntity
  8
0
  6
Continuous
 62
     7
370
    15
100
AcDbLine
 10
-21.5785394265
 20
84.4979732315
 30
0.0
 11
-25.5785394265
 21
84.4979732315
 31
0.0
  0
LINE
  5
2FD
330
1F
100
AcDbEntity
  8
0
  6
Continuous
 62
     7
370
    15
100
AcDbLine
 10
-21.5785394265
 20
87.4979732315
 30
0.0
 11
-21.5785394265
 21
84.4979732315
 31
0.0
  0
LINE
  5
2FE
330
1F
100
AcDbEntity
  8
0
  6
Continuous
 62
     7
370
    15
100
AcDbLine
 10
-15.5785394265
 20
87.4979732315
 30
0.0
 11
-21.5785394265
 21
87.4979732315
 31
0.0
  0
LINE
  5
2FF
330
1F
100
AcDbEntity
  8
0
  6
Continuous
 62
     7
370
    15
100
AcDbLine
 10
-15.5785394265
 20
84.4979732315
 30
0.0
 11
-15.5785394265
 21
87.4979732315
 31
0.0
  0
LINE
  5
300
330
1F
100
AcDbEntity
  8
0
  6
Continuous
 62
     7
370
    15
100
AcDbLine
 10
-5.5785394265
 20
84.4979732315
 30
0.0
 11
-15.5785394265
 21
84.4979732315
 31
0.0
  0
LINE
  5
301
330
1F
100
AcDbEntity
  8
0
  6
Continuous
 62
     7
370
    15
100
AcDbLine
 10
-5.5785394265
 20
87.4979732315
 30
0.0
 11
-5.5785394265
 21
84.4979732315
 31
0.0
  0
LINE
  5
302
330
1F
100
AcDbEntity
  8
0
  6
Continuous
 62
     7
370
    15
100
AcDbLine
 10
0.4214605735
 20
87.4979732315
 30
0.0
 11
-5.5785394265
 21
87.4979732315
 31
0.0
  0
LINE
  5
303
330
1F
100
AcDbEntity
  8
0
  6
Continuous
 62
     7
370
    15
100
AcDbLine
 10
0.4214605735
 20
84.4979732315
 30
0.0
 11
0.4214605735
 21
87.4979732315
 31
0.0
  0
LINE
  5
304
330
1F
100
AcDbEntity
  8
0
  6
Continuous
 62
     7
370
    15
100
AcDbLine
 10
10.4214605735
 20
84.4979732315
 30
0.0
 11
0.4214605735
 21
84.4979732315
 31
0.0
  0
LINE
  5
305
330
1F
100
AcDbEntity
  8
0
  6
Continuous
 62
     7
370
    15
100
AcDbLine
 10
10.4214605735
 20
87.4979732315
 30
0.0
 11
10.4214605735
 21
84.4979732315
 31
0.0
  0
LINE
  5
306
330
1F
100
AcDbEntity
  8
0
  6
Continuous
 62
     7
370
    15
100
AcDbLine
 10
16.4214605735
 20
87.4979732315
 30
0.0
 11
10.4214605735
 21
87.4979732315
 31
0.0
  0
LINE
  5
307
330
1F
100
AcDbEntity
  8
0
  6
Continuous
 62
     7
370
    15
100
AcDbLine
 10
16.4214605735
 20
84.4979732315
 30
0.0
 11
16.4214605735
 21
87.4979732315
 31
0.0
  0
LINE
  5
308
330
1F
100
AcDbEntity
  8
0
  6
Continuous
 62
     7
370
    15
100
AcDbLine
 10
26.4214605735
 20
84.4979732315
 30
0.0
 11
16.4214605735
 21
84.4979732315
 31
0.0
  0
LINE
  5
309
330
1F
100
AcDbEntity
  8
0
  6
Continuous
 62
     7
370
    15
100
AcDbLine
 10
26.4214605735
 20
87.4979732315
 30
0.0
 11
26.4214605735
 21
84.4979732315
 31
0.0
  0
LINE
  5
30A
330
1F
100
AcDbEntity
  8
0
  6
Continuous
 62
     7
370
    15
100
AcDbLine
 10
32.4214605735
 20
87.4979732315
 30
0.0
 11
26.4214605735
 21
87.4979732315
 31
0.0
  0
LINE
  5
30B
330
1F
100
AcDbEntity
  8
0
  6
Continuous
 62
     7
370
    15
100
AcDbLine
 10
32.4214605735
 20
84.4979732315
 30
0.0
 11
32.4214605735
 21
87.4979732315
 31
0.0
  0
LINE
  5
30C
330
1F
100
AcDbEntity
  8
0
  6
Continuous
 62
     7
370
    15
100
AcDbLine
 10
37.4214605735
 20
84.4979732315
 30
0.0
 11
32.4214605735
 21
84.4979732315
 31
0.0
  0
LINE
  5
30D
330
1F
100
AcDbEntity
  8
0
  6
Continuous
 62
     7
370
    15
100
AcDbLine
 10
37.4214605735
 20
87.4979732315
 30
0.0
 11
37.4214605735
 21
84.4979732315
 31
0.0
  0
LINE
  5
30E
330
1F
100
AcDbEntity
  8
0
  6
Continuous
 62
     7
370
    15
100
AcDbLine
 10
42.4214605735
 20
87.4979732315
 30
0.0
 11
37.4214605735
 21
87.4979732315
 31
0.0
  0
LINE
  5
30F
330
1F
100
AcDbEntity
  8
0
  6
Continuous
 62
     7
370
    15
100
AcDbLine
 10
42.4214605735
 20
87.4979732315
 30
0.0
 11
46.5115579968
 21
83.4078758082
 31
0.0
  0
LINE
  5
310
330
1F
100
AcDbEntity
  8
0
  6
Continuous
 62
     7
370
    15
100
AcDbLine
 10
46.5115579968
 20
83.4078758082
 30
0.0
 11
42.2689173096
 21
79.1652351211
 31
0.0
  0
LINE
  5
311
330
1F
100
AcDbEntity
  8
0
  6
Continuous
 62
     7
370
    15
100
AcDbLine
 10
42.2689173096
 20
79.1652351211
 30
0.0
 11
43.683130872
 21
77.7510215587
 31
0.0
  0
LINE
  5
312
330
1F
100
AcDbEntity
  8
0
  6
Continuous
 62
     7
370
    15
100
AcDbLine
 10
43.683130872
 20
77.7510215587
 30
0.0
 11
47.9257715591
 21
81.9936622458
 31
0.0
  0
LINE
  5
313
330
1F
100
AcDbEntity
  8
0
  6
Continuous
 62
     7
370
    15
100
AcDbLine
 10
47.9257715591
 20
81.9936622458
 30
0.0
 11
51.4613054651
 21
78.4581283399
 31
0.0
  0
LINE
  5
314
330
1F
100
AcDbEntity
  8
0
  6
Continuous
 62
     7
370
    15
100
AcDbLine
 10
51.4613054651
 20
78.4581283399
 30
0.0
 11
47.218664778
 21
74.2154876528
 31
0.0
  0
LINE
  5
315
330
1F
100
AcDbEntity
  8
0
  6
Continuous
 62
     7
370
    15
100
AcDbLine
 10
47.218664778
 20
74.2154876528
 30
0.0
 11
50.7541986839
 21
70.6799537468
 31
0.0
  0
LINE
  5
316
330
1F
100
AcDbEntity
  8
0
  6
Continuous
 62
     7
370
    15
100
AcDbLine
 10
50.7541986839
 20
70.6799537468
 30
0.0
 11
54.996839371
 21
74.9225944339
 31
0.0
  0
LINE
  5
317
330
1F
100
AcDbEntity
  8
0
  6
Continuous
 62
     7
370
    15
100
AcDbLine
 10
54.996839371
 20
74.9225944339
 30
0.0
 11
58.5323732769
 21
71.387060528
 31
0.0
  0
LINE
  5
318
330
1F
100
AcDbEntity
  8
0
  6
Continuous
 62
     7
370
    15
100
AcDbLine
 10
58.5323732769
 20
71.387060528
 30
0.0
 11
54.2897325898
 21
67.1444198409
 31
0.0
  0
LINE
  5
319
330
1F
100
AcDbEntity
  8
0
  6
Continuous
 62
     7
370
    15
100
AcDbLine
 10
54.2897325898
 20
67.1444198409
 30
0.0
 11
56.764606324
 21
64.6695461067
 31
0.0
  0
LINE
  5
31A
330
1F
100
AcDbEntity
  8
0
  6
Continuous
 62
     7
370
    15
100
AcDbLine
 10
56.764606324
 20
64.6695461067
 30
0.0
 11
52.5219656369
 21
60.4269054196
 31
0.0
  0
LINE
  5
31B
330
1F
100
AcDbEntity
  8
0
  6
Continuous
 62
     7
370
    15
100
AcDbLine
 10
52.5219656369
 20
60.4269054196
 30
0.0
 11
51.8148588557
 21
61.1340122008
 31
0.0
  0
LINE
  5
31C
330
1F
100
AcDbEntity
  8
0
  6
Continuous
 62
     7
370
    15
100
AcDbLine
 10
51.8148588557
 20
61.1340122008
 30
0.0
 11
49.6935385121
 21
59.0126918572
 31
0.0
  0
LINE
  5
31D
330
1F
100
AcDbEntity
  8
0
  6
Continuous
 62
     7
370
    15
100
AcDbLine
 10
49.6935385121
 20
59.0126918572
 30
0.0
 11
50.4006452933
 21
58.3055850761
 31
0.0
  0
LINE
  5
31E
330
1F
100
AcDbEntity
  8
0
  6
Continuous
 62
     7
370
    15
100
AcDbLine
 10
50.4006452933
 20
58.3055850761
 30
0.0
 11
46.8651113874
 21
54.7700511701
 31
0.0
  0
LINE
  5
31F
330
1F
100
AcDbEntity
  8
0
  6
Continuous
 62
     7
370
    15
100
AcDbLine
 10
46.8651113874
 20
54.7700511701
 30
0.0
 11
49.6935385121
 21
51.9416240454
 31
0.0
  0
LINE
  5
320
330
1F
100
AcDbEntity
  8
0
  6
Continuous
 62
     7
370
    15
100
AcDbLine
 10
49.6935385121
 20
51.9416240454
 30
0.0
 11
53.229072418
 21
55.4771579513
 31
0.0
  0
LINE
  5
321
330
1F
100
AcDbEntity
  8
0
  6
Continuous
 62
     7
370
    15
100
AcDbLine
 10
53.229072418
 20
55.4771579513
 30
0.0
 11
53.9361791992
 21
54.7700511701
 31
0.0
  0
LINE
  5
322
330
1F
100
AcDbEntity
  8
0
  6
Continuous
 62
     7
370
    15
100
AcDbLine
 10
53.9361791992
 20
54.7700511701
 30
0.0
 11
56.0574995428
 21
56.8913715137
 31
0.0
  0
LINE
  5
323
330
1F
100
AcDbEntity
  8
0
  6
Continuous
 62
     7
370
    15
100
AcDbLine
 10
56.0574995428
 20
56.8913715137
 30
0.0
 11
55.3503927616
 21
57.5984782949
 31
0.0
  0
LINE
  5
324
330
1F
100
AcDbEntity
  8
0
  6
Continuous
 62
     7
370
    15
100
AcDbLine
 10
55.3503927616
 20
57.5984782949
 30
0.0
 11
59.5930334487
 21
61.841118982
 31
0.0
  0
LINE
  5
325
330
1F
100
AcDbEntity
  8
0
  6
Continuous
 62
     7
370
    15
100
AcDbLine
 10
59.5930334487
 20
61.841118982
 30
0.0
 11
62.0679071829
 21
59.3662452478
 31
0.0
  0
LINE
  5
326
330
1F
100
AcDbEntity
  8
0
  6
Continuous
 62
     7
370
    15
100
AcDbLine
 10
62.0679071829
 20
59.3662452478
 30
0.0
 11
66.31054787
 21
63.608885935
 31
0.0
  0
LINE
  5
327
330
1F
100
AcDbEntity
  8
0
  6
Continuous
 62
     7
370
    15
100
AcDbLine
 10
66.31054787
 20
63.608885935
 30
0.0
 11
69.8460817759
 21
60.073352029
 31
0.0
  0
LINE
  5
328
330
1F
100
AcDbEntity
  8
0
  6
Continuous
 62
     7
370
    15
100
AcDbLine
 10
69.8460817759
 20
60.073352029
 30
0.0
 11
65.6034410888
 21
55.8307113419
 31
0.0
  0
LINE
  5
329
330
1F
100
AcDbEntity
  8
0
  6
Continuous
 62
     7
370
    15
100
AcDbLine
 10
65.6034410888
 20
55.8307113419
 30
0.0
 11
69.1389749947
 21
52.295177436
 31
0.0
  0
LINE
  5
32A
330
1F
100
AcDbEntity
  8
0
  6
Continuous
 62
     7
370
    15
100
AcDbLine
 10
69.1389749947
 20
52.295177436
 30
0.0
 11
73.3816156819
 21
56.5378181231
 31
0.0
  0
LINE
  5
32B
330
1F
100
AcDbEntity
  8
0
  6
Continuous
 62
     7
370
    15
100
AcDbLine
 10
73.3816156819
 20
56.5378181231
 30
0.0
 11
76.9171495878
 21
53.0022842172
 31
0.0
  0
LINE
  5
32C
330
1F
100
AcDbEntity
  8
0
  6
Continuous
 62
     7
370
    15
100
AcDbLine
 10
76.9171495878
 20
53.0022842172
 30
0.0
 11
72.6745089007
 21
48.75964353
 31
0.0
  0
LINE
  5
32D
330
1F
100
AcDbEntity
  8
0
  6
Continuous
 62
     7
370
    15
100
AcDbLine
 10
72.6745089007
 20
48.75964353
 30
0.0
 11
74.088722463
 21
47.3454299677
 31
0.0
  0
LINE
  5
32E
330
1F
100
AcDbEntity
  8
0
  6
Continuous
 62
     7
370
    15
100
AcDbLine
 10
74.088722463
 20
47.3454299677
 30
0.0
 11
78.3313631502
 21
51.5880706548
 31
0.0
  0
LINE
  5
32F
330
1F
100
AcDbEntity
  8
0
  6
Continuous
 62
     7
370
    15
100
AcDbLine
 10
78.3313631502
 20
51.5880706548
 30
0.0
 11
82.4214605735
 21
47.4979732315
 31
0.0
  0
LINE
  5
330
330
1F
100
AcDbEntity
  8
0
  6
Continuous
 62
     7
370
    15
100
AcDbLine
 10
82.4214605735
 20
42.4979732315
 30
0.0
 11
79.4214605735
 21
42.4979732315
 31
0.0
  0
LINE
  5
331
330
1F
100
AcDbEntity
  8
0
  6
Continuous
 62
     7
370
    15
100
AcDbLine
 10
79.4214605735
 20
42.4979732315
 30
0.0
 11
79.4214605735
 21
33.4979732315
 31
0.0
  0
LINE
  5
332
330
1F
100
AcDbEntity
  8
0
  6
Continuous
 62
     7
370
    15
100
AcDbLine
 10
79.4214605735
 20
33.4979732315
 30
0.0
 11
82.4214605735
 21
33.4979732315
 31
0.0
  0
LINE
  5
333
330
1F
100
AcDbEntity
  8
0
  6
Continuous
 62
     7
370
    15
100
AcDbLine
 10
82.4214605735
 20
21.4979732315
 30
0.0
 11
79.4214605735
 21
21.4979732315
 31
0.0
  0
LINE
  5
334
330
1F
100
AcDbEntity
  8
0
  6
Continuous
 62
     7
370
    15
100
AcDbLine
 10
79.4214605735
 20
21.4979732315
 30
0.0
 11
79.4214605735
 21
6.4979732315
 31
0.0
  0
LINE
  5
335
330
1F
100
AcDbEntity
  8
0
  6
Continuous
 62
     7
370
    15
100
AcDbLine
 10
79.4214605735
 20
6.4979732315
 30
0.0
 11
82.4214605735
 21
6.4979732315
 31
0.0
  0
LINE
  5
336
330
1F
100
AcDbEntity
  8
0
  6
Continuous
 62
     7
370
    15
100
AcDbLine
 10
82.4214605735
 20
-5.5020267685
 30
0.0
 11
79.4214605735
 21
-5.5020267685
 31
0.0
  0
LINE
  5
337
330
1F
100
AcDbEntity
  8
0
  6
Continuous
 62
     7
370
    15
100
AcDbLine
 10
79.4214605735
 20
-5.5020267685
 30
0.0
 11
79.4214605735
 21
-12.5020267685
 31
0.0
  0
LINE
  5
338
330
1F
100
AcDbEntity
  8
0
  6
Continuous
 62
     7
370
    15
100
AcDbLine
 10
79.4214605735
 20
-12.5020267685
 30
0.0
 11
73.4214605735
 21
-12.5020267685
 31
0.0
  0
LINE
  5
339
330
1F
100
AcDbEntity
  8
0
  6
Continuous
 62
     7
370
    15
100
AcDbLine
 10
73.4214605735
 20
-12.5020267685
 30
0.0
 11
73.4214605735
 21
-11.5020267685
 31
0.0
  0
LINE
  5
33A
330
1F
100
AcDbEntity
  8
0
  6
Continuous
 62
     7
370
    15
100
AcDbLine
 10
73.4214605735
 20
-11.5020267685
 30
0.0
 11
70.4214605735
 21
-11.5020267685
 31
0.0
  0
LINE
  5
33B
330
1F
100
AcDbEntity
  8
0
  6
Continuous
 62
     7
370
    15
100
AcDbLine
 10
70.4214605735
 20
-11.5020267685
 30
0.0
 11
70.4214605735
 21
-12.5020267685
 31
0.0
  0
LINE
  5
33C
330
1F
100
AcDbEntity
  8
0
  6
Continuous
 62
     7
370
    15
100
AcDbLine
 10
70.4214605735
 20
-12.5020267685
 30
0.0
 11
65.4214605735
 21
-12.5020267685
 31
0.0
  0
LINE
  5
33D
330
1F
100
AcDbEntity
  8
0
  6
Continuous
 62
     7
370
    15
100
AcDbLine
 10
65.4214605735
 20
-12.5020267685
 30
0.0
 11
65.4214605735
 21
-16.5020267685
 31
0.0
  0
LINE
  5
33E
330
1F
100
AcDbEntity
  8
0
  6
Continuous
 62
     7
370
    15
100
AcDbLine
 10
65.4214605735
 20
-16.5020267685
 30
0.0
 11
70.4214605735
 21
-16.5020267685
 31
0.0
  0
LINE
  5
33F
330
1F
100
AcDbEntity
  8
0
  6
Continuous
 62
     7
370
    15
100
AcDbLine
 10
70.4214605735
 20
-16.5020267685
 30
0.0
 11
70.4214605735
 21
-17.5020267685
 31
0.0
  0
LINE
  5
340
330
1F
100
AcDbEntity
  8
0
  6
Continuous
 62
     7
370
    15
100
AcDbLine
 10
70.4214605735
 20
-17.5020267685
 30
0.0
 11
73.4214605735
 21
-17.5020267685
 31
0.0
  0
LINE
  5
341
330
1F
100
AcDbEntity
  8
0
  6
Continuous
 62
     7
370
    15
100
AcDbLine
 10
73.4214605735
 20
-17.5020267685
 30
0.0
 11
73.4214605735
 21
-16.5020267685
 31
0.0
  0
LINE
  5
342
330
1F
100
AcDbEntity
  8
0
  6
Continuous
 62
     7
370
    15
100
AcDbLine
 10
73.4214605735
 20
-16.5020267685
 30
0.0
 11
79.4214605735
 21
-16.5020267685
 31
0.0
  0
LINE
  5
343
330
1F
100
AcDbEntity
  8
0
  6
Continuous
 62
     7
370
    15
100
AcDbLine
 10
82.4214605735
 20
42.4979732315
 30
0.0
 11
82.4214605735
 21
47.4979732315
 31
0.0
  0
LINE
  5
344
330
1F
100
AcDbEntity
  8
0
  6
Continuous
 62
     7
370
    15
100
AcDbLine
 10
82.4214605735
 20
-184.5020267685
 30
0.0
 11
82.4214605735
 21
-179.5020267685
 31
0.0
  0
LINE
  5
345
330
1F
100
AcDbEntity
  8
0
  6
Continuous
 62
     7
370
    15
100
AcDbLine
 10
82.4214605735
 20
-113.5020267685
 30
0.0
 11
82.4214605735
 21
-101.5020267685
 31
0.0
  0
LINE
  5
346
330
1F
100
AcDbEntity
  8
0
  6
Continuous
 62
     7
370
    15
100
AcDbLine
 10
82.4214605735
 20
-143.5020267685
 30
0.0
 11
82.4214605735
 21
-131.5020267685
 31
0.0
  0
LINE
  5
347
330
1F
100
AcDbEntity
  8
0
  6
Continuous
 62
     7
370
    15
100
AcDbLine
 10
82.4214605735
 20
-170.5020267685
 30
0.0
 11
82.4214605735
 21
-158.5020267685
 31
0.0
  0
LINE
  5
348
330
1F
100
AcDbEntity
  8
0
  6
Continuous
 62
     7
370
    15
100
AcDbLine
 10
82.4214605735
 20
21.4979732315
 30
0.0
 11
82.4214605735
 21
33.4979732315
 31
0.0
  0
LINE
  5
349
330
1F
100
AcDbEntity
  8
0
  6
Continuous
 62
     7
370
    15
100
AcDbLine
 10
82.4214605735
 20
-5.5020267685
 30
0.0
 11
82.4214605735
 21
6.4979732315
 31
0.0
  0
LINE
  5
34A
330
1F
100
AcDbEntity
  8
0
  6
Continuous
 62
     7
370
    15
100
AcDbLine
 10
82.4214605735
 20
-35.5020267685
 30
0.0
 11
82.4214605735
 21
-23.5020267685
 31
0.0
  0
LINE
  5
34B
330
1F
100
AcDbEntity
  8
0
  6
Continuous
 62
     7
370
    15
100
AcDbLine
 10
82.4214605735
 20
-62.5020267685
 30
0.0
 11
82.4214605735
 21
-50.5020267685
 31
0.0
  0
LINE
  5
34C
330
1F
100
AcDbEntity
  8
0
  6
Continuous
 62
     7
370
    15
100
AcDbLine
 10
79.4214605735
 20
-124.5020267685
 30
0.0
 11
79.4214605735
 21
-131.5020267685
 31
0.0
  0
LINE
  5
34D
330
1F
100
AcDbEntity
  8
0
  6
Continuous
 62
     7
370
    15
100
AcDbLine
 10
79.4214605735
 20
-16.5020267685
 30
0.0
 11
79.4214605735
 21
-23.5020267685
 31
0.0
  0
ARC
  5
34E
330
1F
100
AcDbEntity
  8
0
  6
Continuous
 62
     7
370
    15
100
AcDbCircle
 10
-57.2938746012
 20
-170.0343829148
 30
0.0
 40
14.99999999999997
100
AcDbArc
 50
315.0
 51
45.0
  0
ARC
  5
34F
330
1F
100
AcDbEntity
  8
0
  6
Continuous
 62
     7
370
    15
100
AcDbCircle
 10
-70.0217966626
 20
-157.3064608535
 30
0.0
 40
14.99999999999999
100
AcDbArc
 50
45.0
 51
135.0
  0
ARC
  5
350
330
1F
100
AcDbEntity
  8
0
  6
Continuous
 62
     7
370
    15
100
AcDbCircle
 10
-88.4065729734
 20
-175.6912371643
 30
0.0
 40
15.00000000000009
100
AcDbArc
 50
135.0
 51
225.0
  0
ARC
  5
351
330
1F
100
AcDbEntity
  8
0
  6
Continuous
 62
     7
370
    15
100
AcDbCircle
 10
-75.6786509121
 20
-188.4191592257
 30
0.0
 40
15.00000000000007
100
AcDbArc
 50
225.0
 51
315.0
  0
ARC
  5
352
330
1F
100
AcDbEntity
  8
0
  6
Continuous
 62
     7
370
    15
100
AcDbCircle
 10
-70.0217966626
 20
20.3024073164
 30
0.0
 40
14.99999999999995
100
AcDbArc
 50
225.0
 51
315.0
  0
ARC
  5
353
330
1F
100
AcDbEntity
  8
0
  6
Continuous
 62
     7
370
    15
100
AcDbCircle
 10
-57.2938746012
 20
33.0303293778
 30
0.0
 40
14.99999999999999
100
AcDbArc
 50
315.0
 51
45.0
  0
ARC
  5
354
330
1F
100
AcDbEntity
  8
0
  6
Continuous
 62
     7
370
    15
100
AcDbCircle
 10
-75.6786509121
 20
51.4151056886
 30
0.0
 40
14.99999999999999
100
AcDbArc
 50
45.0
 51
135.0
  0
ARC
  5
355
330
1F
100
AcDbEntity
  8
0
  6
Continuous
 62
     7
370
    15
100
AcDbCircle
 10
-88.4065729734
 20
38.6871836273
 30
0.0
 40
15.00000000000002
100
AcDbArc
 50
135.0
 51
225.0
  0
ARC
  5
356
330
1F
100
AcDbEntity
  8
0
  6
Continuous
 62
     7
370
    15
100
AcDbCircle
 10
5.4214605735
 20
-43.5020267685
 30
0.0
 40
15.0
100
AcDbArc
 50
0.0
 51
180.0
  0
ARC
  5
357
330
1F
100
AcDbEntity
  8
0
  6
Continuous
 62
     7
370
    15
100
AcDbCircle
 10
5.4214605735
 20
-93.5020267685
 30
0.0
 40
15.0
100
AcDbArc
 50
180.0
 51
0.0
  0
ARC
  5
358
330
1F
100
AcDbEntity
  8
0
  6
Continuous
 62
     7
370
    15
100
AcDbCircle
 10
43.9214605735
 20
-158.3125445317
 30
0.0
 40
15.00000000000001
100
AcDbArc
 50
180.0
 51
0.0
  0
ARC
  5
359
330
1F
100
AcDbEntity
  8
0
  6
Continuous
 62
     7
370
    15
100
AcDbCircle
 10
43.9214605735
 20
-93.3125445317
 30
0.0
 40
15.00000000000001
100
AcDbArc
 50
0.0
 51
180.0
  0
ARC
  5
35A
330
1F
100
AcDbEntity
  8
0
  6
Continuous
 62
     7
370
    15
100
AcDbCircle
 10
43.9214605735
 20
21.3084909947
 30
0.0
 40
15.00000000000001
100
AcDbArc
 50
0.0
 51
180.0
  0
ARC
  5
35B
330
1F
100
AcDbEntity
  8
0
  6
Continuous
 62
     7
370
    15
100
AcDbCircle
 10
43.9214605735
 20
-43.6915090053
 30
0.0
 40
15.00000000000001
100
AcDbArc
 50
180.0
 51
0.0
  0
ARC
  5
35C
330
1F
100
AcDbEntity
  8
0
  6
Continuous
 62
     7
370
    15
100
AcDbCircle
 10
-117.5785394265
 20
-172.0081354115
 30
0.0
 40
20.00000000000001
100
AcDbArc
 50
115.9640685382
 51
180.0
  0
ARC
  5
35D
330
1F
100
AcDbEntity
  8
0
  6
Continuous
 62
     7
370
    15
100
AcDbCircle
 10
-42.5785394265
 20
-90.9959181256
 30
0.0
 40
19.99999999999993
100
AcDbArc
 50
295.9640685382
 51
0.0
  0
ARC
  5
35E
330
1F
100
AcDbEntity
  8
0
  6
Continuous
 62
     7
370
    15
100
AcDbCircle
 10
-42.5785394265
 20
-46.0081354115
 30
0.0
 40
19.99999999999999
100
AcDbArc
 50
0.0
 51
64.0359314618
  0
ARC
  5
35F
330
1F
100
AcDbEntity
  8
0
  6
Continuous
 62
     7
370
    15
100
AcDbCircle
 10
-117.5785394265
 20
35.0040818744
 30
0.0
 40
20.00000000000006
100
AcDbArc
 50
180.0
 51
244.0359314618
  0
ENDSEC
  0
SECTION
  2
OBJECTS
  0
DICTIONARY
  5
C
330
0
100
AcDbDictionary
281
     1
  3
ACAD_GROUP
350
D
  3
ACAD_LAYOUT
350
1A
  3
ACAD_MLINESTYLE
350
17
  3
ACAD_PLOTSETTINGS
350
19
  3
ACAD_PLOTSTYLENAME
350
E
  0
DICTIONARY
  5
D
102
{ACAD_REACTORS
330
C
102
}
330
C
100
AcDbDictionary
281
     1
  0
DICTIONARY
  5
1A
102
{ACAD_REACTORS
330
C
102
}
330
C
100
AcDbDictionary
281
     1
  3
Layout1
350
1E
  3
Layout2
350
26
  3
Model
350
22
  0
DICTIONARY
  5
17
102
{ACAD_REACTORS
330
C
102
}
330
C
100
AcDbDictionary
281
     1
  3
Standard
350
18
  0
DICTIONARY
  5
19
102
{ACAD_REACTORS
330
C
102
}
330
C
100
AcDbDictionary
281
     1
  0
ACDBDICTIONARYWDFLT
  5
E
102
{ACAD_REACTORS
330
C
102
}
330
C
100
AcDbDictionary
281
     1
  3
Normal
350
F
100
AcDbDictionaryWithDefault
340
F
  0
LAYOUT
  5
1E
102
{ACAD_REACTORS
330
1A
102
}
330
1A
100
AcDbPlotSettings
  1

  2
none_device
  4

  6

 40
0.0
 41
0.0
 42
0.0
 43
0.0
 44
0.0
 45
0.0
 46
0.0
 47
0.0
 48
0.0
 49
0.0
140
0.0
141
0.0
142
1.0
143
1.0
 70
   688
 72
     0
 73
     0
 74
     5
  7

 75
    16
147
1.0
148
0.0
149
0.0
100
AcDbLayout
  1
Layout1
 70
     1
 71
     1
 10
0.0
 20
0.0
 11
420.0
 21
297.0
 12
0.0
 22
0.0
 32
0.0
 14
1.0000000000E+20
 24
1.0000000000E+20
 34
1.0000000000E+20
 15
-1.0000000000E+20
 25
-1.0000000000E+20
 35
-1.0000000000E+20
146
0.0
 13
0.0
 23
0.0
 33
0.0
 16
1.0
 26
0.0
 36
0.0
 17
0.0
 27
1.0
 37
0.0
 76
     0
330
1B
  0
LAYOUT
  5
26
102
{ACAD_REACTORS
330
1A
102
}
330
1A
100
AcDbPlotSettings
  1

  2
none_device
  4

  6

 40
0.0
 41
0.0
 42
0.0
 43
0.0
 44
0.0
 45
0.0
 46
0.0
 47
0.0
 48
0.0
 49
0.0
140
0.0
141
0.0
142
1.0
143
1.0
 70
   688
 72
     0
 73
     0
 74
     5
  7

 75
    16
147
1.0
148
0.0
149
0.0
100
AcDbLayout
  1
Layout2
 70
     1
 71
     2
 10
0.0
 20
0.0
 11
0.0
 21
0.0
 12
0.0
 22
0.0
 32
0.0
 14
0.0
 24
0.0
 34
0.0
 15
0.0
 25
0.0
 35
0.0
146
0.0
 13
0.0
 23
0.0
 33
0.0
 16
1.0
 26
0.0
 36
0.0
 17
0.0
 27
1.0
 37
0.0
 76
     0
330
23
  0
LAYOUT
  5
22
102
{ACAD_REACTORS
330
1A
102
}
330
1A
100
AcDbPlotSettings
  1

  2
none_device
  4
ANSI_A_(11.00_x_8.50_Inches)
  6

 40
6.35
 41
19.05
 42
6.35000508
 43
19.05000254
 44
279.4
 45
215.9
 46
152.243153215
 47
135.8284977798
 48
0.0
 49
0.0
140
0.0
141
0.0
142
0.0269711538
143
1.0
 70
  1696
 72
     0
 73
     0
 74
     0
  7

 75
     0
147
0.0179189148
148
0.0
149
0.0
100
AcDbLayout
  1
Model
 70
     1
 71
     0
 10
0.0
 20
0.0
 11
420.0
 21
297.0
 12
0.0
 22
0.0
 32
0.0
 14
-137.5785394265
 24
-224.5020267685
 34
0.0
 15
82.4214605735
 25
87.4979732315
 35
0.0
146
0.0
 13
0.0
 23
0.0
 33
0.0
 16
1.0
 26
0.0
 36
0.0
 17
0.0
 27
1.0
 37
0.0
 76
     0
330
1F
331
29
  0
MLINESTYLE
  5
18
102
{ACAD_REACTORS
330
17
102
}
330
17
100
AcDbMlineStyle
  2
Standard
 70
     0
  3

 62
   256
 51
90.0
 52
90.0
 71
     2
 49
0.5
 62
   256
  6
BYLAYER
 49
-0.5
 62
   256
  6
BYLAYER
  0
ACDBPLACEHOLDER
  5
F
102
{ACAD_REACTORS
330
E
102
}
330
E
  0
ENDSEC
  0
EOF
